<?xml version="1.0" encoding="UTF-8" standalone="no"?>
<svg
   xmlns:dc="http://purl.org/dc/elements/1.1/"
   xmlns:cc="http://creativecommons.org/ns#"
   xmlns:rdf="http://www.w3.org/1999/02/22-rdf-syntax-ns#"
   xmlns:svg="http://www.w3.org/2000/svg"
   xmlns="http://www.w3.org/2000/svg"
   xmlns:sodipodi="http://sodipodi.sourceforge.net/DTD/sodipodi-0.dtd"
   xmlns:inkscape="http://www.inkscape.org/namespaces/inkscape"
   width="330.20001mm"
   height="165.10001mm"
   viewBox="0 0 330.20001 165.10001"
   version="1.1"
   id="svg8"
   inkscape:version="1.0 (4035a4f, 2020-05-01)"
   sodipodi:docname="slantshack.svg">
  <defs
     id="defs2" />
  <sodipodi:namedview
     id="base"
     pagecolor="#ffffff"
     bordercolor="#666666"
     borderopacity="1.0"
     inkscape:pageopacity="0.0"
     inkscape:pageshadow="2"
     inkscape:zoom="0.5"
     inkscape:cx="652.1514"
     inkscape:cy="378.53268"
     inkscape:document-units="mm"
     inkscape:current-layer="layer3"
     inkscape:document-rotation="0"
     showgrid="false"
     inkscape:window-width="1252"
     inkscape:window-height="1174"
     inkscape:window-x="1031"
     inkscape:window-y="23"
     inkscape:window-maximized="0" />
  <metadata
     id="metadata5">
    <rdf:RDF>
      <cc:Work
         rdf:about="">
        <dc:format>image/svg+xml</dc:format>
        <dc:type
           rdf:resource="http://purl.org/dc/dcmitype/StillImage" />
        <dc:title />
      </cc:Work>
    </rdf:RDF>
  </metadata>
  <g
     inkscape:groupmode="layer"
     id="layer3"
     inkscape:label="slant"
     style="display:inline">
    <path
       id="path33"
       style="mix-blend-mode:normal;fill:#12a9e8;fill-opacity:1;stroke:none;stroke-width:0.26458300000000001px;stroke-linecap:butt;stroke-linejoin:miter;stroke-opacity:1"
       d="m 234.64151,19.041124 c -0.31107,6.862589 0.55567,14.123217 0.55567,14.123217 0.30787,0.842023 0.90468,0.913537 1.46998,1.069078 l 17.23889,-0.801806 c 1.7885,0.353677 1.96792,1.350987 2.00452,2.405425 l 2.00452,46.772168 5.81786,3.285515 c 1.81449,-0.251527 4.71113,-0.604295 7.37317,-0.870303 2.47085,-0.246903 4.69888,-0.703988 5.51784,-2.014311 L 275.2876,34.500691 c 0.0415,-1.302349 0.86366,-1.891543 1.80908,-1.914499 l 13.61726,-0.330654 c 3.591,-0.102542 4.68981,-0.776592 4.61889,-1.897526 l -0.60934,-14.260953 c -0.0629,-1.472161 -1.14832,-2.273706 -2.19699,-2.176122 0,0.561807 -36.87578,0.918606 -55.05753,2.138156 -3.2885,0.298367 -2.68431,-0.123698 -2.82746,2.982031 z m -64.9302,-0.142321 2.64583,67.846724 c 0.079,1.298967 0.93657,1.429959 1.70089,1.700895 l 16.63096,-0.755954 c 0.30267,-8.226406 -0.25199,-19.024801 -0.37798,-28.537202 0.0983,-2.249093 1.23706,-1.627023 2.26786,-0.944941 l 29.86012,27.214285 3.21279,1.511906 4.91369,-0.377976 1.88988,-1.13393 c 0.80052,-21.794049 -1.20954,-44.99339 -1.98912,-67.577488 -0.23069,-2.440384 -12.55532,-0.64903 -18.66594,0.131668 l 0.62233,27.380345 c 0.0221,2.311958 -0.58992,3.355882 -2.07887,2.645833 L 178.97172,18.14285 c -1.1047,-0.567192 -7.17439,-0.809674 -9.26041,0.755953 z m -60.9007,72.166888 16.86499,-0.860454 c 0,0 1.13961,0.0953 1.11197,-0.913422 l -0.35454,-12.940632 c 7.52708,-1.234619 12.55574,-0.882937 19.93765,-0.934936 0.72851,-0.02814 1.01748,-0.125494 1.17076,0.54895 1.02226,4.477518 0.42817,7.379518 1.38117,11.394542 0.6444,2.474991 2.05349,2.044152 3.29175,2.262471 l 14.47314,-0.986802 c 0.63714,0.03775 0.86008,-0.89097 1.13393,-1.700892 L 165.74256,44.034218 C 165.25889,29.617871 153.06747,19.81516 137.77497,19.146432 c -5.14479,-0.224977 -10.38101,0.342967 -15.16286,2.329518 -9.85479,4.094028 -14.73502,12.12943 -16.4008,25.960056 0.38418,20.408868 1.70709,38.768013 2.01463,42.825171 0.0442,0.703427 -0.10211,0.839554 0.58467,0.804514 z M 52.53869,23.245529 55.184523,92.982112 103.1875,91.470221 102.43155,73.70535 73.138392,74.65029 71.437499,22.678564 Z m -5.85863,6.047618 -5.480655,17.386904 C 24.048516,35.152853 14.771538,45.426032 20.78869,47.624992 35.24111,53.360534 50.311918,57.751773 50.648808,73.70535 50.016699,83.40459 45.442386,88.027697 39.309524,92.226165 24.483066,97.904582 14.110316,95.453557 -0.37797618,89.202373 L 6.0476189,70.870528 C 15.528629,77.975188 25.020072,80.620151 31.183036,74.272313 33.390571,71.998557 24.548971,68.479926 18.142857,66.334814 -10.040832,56.312271 0.34524475,31.277837 13.985119,25.702374 26.109485,21.4893 36.693478,23.143163 46.68006,29.293147 Z" />
    <path
       id="path898"
       style="fill:#b21e1e;fill-opacity:1;stroke:none;stroke-width:0.264583px;stroke-linecap:butt;stroke-linejoin:miter;stroke-opacity:1"
       d="m 268.6035,80.698019 -0.13127,65.765681 c -0.23221,1.97558 0.47986,3.07953 2.53907,2.93996 h 12.82893 c 2.69669,-0.0103 3.17627,-1.12911 3.07362,-2.53906 l 0.40089,-14.56619 c 0.15384,-2.19148 1.15459,-2.08421 2.53905,-0.93544 l 18.44966,17.10928 c 0.95915,0.79325 1.55444,0.98008 1.98622,0.89437 l 19.78819,0.037 0.0661,-3.41507 -29.0649,-28.92454 c -1.67638,-1.72972 -0.30388,-2.05226 0.13364,-2.80633 l 26.8606,-30.86963 c 2.38741,-1.794518 1.74967,-3.925618 -0.26728,-3.945583 l -19.91159,-0.197093 -17.37251,19.64431 c -1.87746,1.774326 -2.73401,1.251596 -3.20723,-0.133634 l -0.40089,-3.87541 0.13361,-12.428032 c 0.45651,-2.817728 -1.20696,-2.956863 -2.80633,-3.207234 l -13.63072,0.133636 c -1.79721,0.170648 -2.00337,-0.451709 -2.00691,1.318969 z m -4.77612,5.291563 -5.66964,14.552088 c -0.74739,0.7058 -1.21147,1.83657 -3.40179,0.37797 -5.08638,-2.443677 -10.68202,-5.784843 -17.67038,-4.630206 -16.33869,2.699525 -18.81605,12.215606 -16.53647,25.229906 8.64005,15.02554 21.29091,12.25812 35.34863,6.46561 1.14219,-0.43733 1.99068,-0.5084 2.73248,0.14898 l 4.81919,12.85119 c 0.24239,0.95562 0.59741,1.93376 -0.37797,2.64583 -3.90576,2.64378 -7.81151,3.85057 -11.71727,5.29167 -6.40942,1.48764 -12.01189,1.94154 -17.3869,1.29999 -6.44455,-0.76922 -12.69112,-2.53413 -19.27679,-6.40267 -17.35321,-11.44218 -18.09026,-35.69995 -8.88244,-49.136906 15.75745,-21.415385 41.2456,-19.563673 58.01935,-8.693452 z M 72.760416,79.752975 c 0,0 2.444846,-0.419529 3.68052,-0.488682 4.940049,-0.276465 14.840313,0.299695 14.840313,0.299695 L 91.07209,104.90329 c 0.0785,1.66404 0.999394,2.0645 2.138157,2.13815 l 19.377043,0.0668 c 0.51602,-0.0618 0.94802,-0.23565 0.93544,-1.00226 l 0.60136,-26.526499 16.50389,-0.133636 c 2.14612,0.227828 2.06222,1.106076 2.13816,1.937705 v 64.34514 c 0.0308,0.45374 0.0603,0.89654 0.009,1.30372 -0.20688,1.64813 -0.66898,2.24685 -2.54825,2.30442 l -13.56393,0.13363 c -1.27417,-0.058 -2.79987,0.40633 -2.97338,-1.9377 l -0.10022,-22.25019 c -6.47641,-0.69413 -13.09108,-0.39323 -19.644312,-0.53454 -1.482797,-0.0793 -2.670646,0.32071 -2.739512,2.53906 l -0.06682,20.31249 c -0.0033,0.99925 -0.347323,1.45893 -3.143227,1.64908 -3.823626,0.26004 -10.030667,0.24252 -13.227033,0.28862 -1.750706,0.13906 -2.366533,-0.74326 -2.338607,-2.20497 -0.232124,-22.53021 -0.01001,-45.0529 0.330375,-67.579335 z m 65.796924,69.766755 15.73106,-0.01 c 0,0 1.89557,-0.75515 1.86793,-1.76388 l 0.40141,-12.65714 c 7.52708,-1.23462 13.78416,-0.31598 21.16607,-0.36798 0,0 -0.0333,11.60527 0.47306,14.06961 5.8777,1.44848 9.02212,0.72925 15.49703,0.75595 2.84955,-0.16684 2.9129,-1.62419 2.92932,-3.30729 v -42.9003 c -0.48367,-14.416348 -12.67509,-24.219059 -27.96759,-24.887787 -5.14479,-0.224977 -10.38101,0.342967 -15.16286,2.329518 -9.85479,4.094028 -14.73502,12.12943 -16.4008,25.960059 0.38418,20.40887 -0.54306,37.30468 -0.23552,41.36184 0.0442,0.70344 1.01411,1.45245 1.70089,1.41741 z M 67.090775,84.175299 61.61012,101.56221 c -17.150889,-11.527205 -26.427867,-1.25403 -20.410715,0.94494 14.45242,5.73554 28.389299,10.12678 28.726189,26.08036 -0.632109,9.69924 -4.072493,14.32234 -10.205355,18.52083 -14.826458,5.67846 -27.845041,3.4164 -41.010418,-5.29167 l 6.614584,-16.63095 c 9.48101,7.10466 20.106382,10.31659 26.269346,3.96875 2.207535,-2.27376 -6.634065,-5.79239 -13.040179,-7.9375 C 10.369883,111.19443 20.755959,86.159989 34.395834,80.584526 46.5202,76.371452 57.104193,78.025315 67.090775,84.175299 Z" />
    <path
       id="path934"
       style="mix-blend-mode:normal;fill:#155ae2;fill-opacity:1;stroke:none;stroke-width:0.99999899999999997px;stroke-linecap:butt;stroke-linejoin:miter;stroke-opacity:1"
       d="m 179.28516,295.73828 c -15.73468,0.008 -32.10102,2.8627 -49.28516,8.83399 -21.66314,8.85506 -41.150841,30.69797 -48.566406,55.85937 20.957006,1.09037 42.408666,-2.38798 67.138676,-11.85937 19.13195,-13.09746 34.23935,-27.30082 40.27929,-52.47071 -3.16476,-0.23371 -6.35055,-0.36491 -9.5664,-0.36328 z m 450.84961,0.5957 c -17.06166,-0.0561 -34.18992,2.40882 -50.00391,8.97852 -7.13384,2.96365 -13.57385,6.47817 -19.375,10.58398 0.34337,4.54319 0.88888,9.17219 2.10156,14.28125 2.43553,9.3543 7.76137,7.7276 12.44141,8.55274 L 630,335 c 2.40809,0.14268 3.25013,-3.36661 4.28516,-6.42773 l -1.56055,-32.20313 c -0.86318,-0.0156 -1.72614,-0.0323 -2.58984,-0.0352 z m 249.05273,0.0605 c -17.093,2.18318 -33.99818,7.32023 -50.00586,15.95313 l 11.5332,10.50976 12.14258,5.71485 18.57031,-1.42969 7.14454,-4.28516 c 0.32187,-8.76286 0.51541,-17.589 0.61523,-26.46289 z m -228.9375,1.26367 1.17773,30.19922 c 0.29859,4.90948 3.54092,5.40373 6.42969,6.42774 l 61.13672,-2.7793 C 702.22674,313.42107 677.98736,301.44096 650.25,297.6582 Z m -443.67969,1 2.00196,52.76953 34.85351,-1.09765 10.14649,-32.1875 C 238.3508,308.76882 222.75994,302.1649 206.57031,298.6582 Z m 94.44922,0.64063 c -4.44876,0.005 -8.60855,0.0873 -12.10937,0.2832 -4.67027,0.26137 -13.91016,1.8457 -13.91016,1.8457 -0.24141,15.97664 -0.45861,31.95377 -0.66016,47.92969 L 344.61719,347.14453 345,300.71484 c 0,0 -24.70252,-1.43739 -43.98047,-1.41601 z m 744.10347,0.49805 -22.3437,0.21874 c -6.7926,0.64497 -7.5726,-1.70795 -7.5859,4.98438 l -0.035,17.36914 c 3.1608,-0.35597 6.3548,-0.70387 9.4941,-1.01758 9.3387,-0.93317 17.7602,-2.66088 20.8555,-7.61328 z m -566.94136,0.5957 -46.8457,0.38086 -0.96289,42.4375 44.62109,-2.27735 c 0,0 4.30759,0.35937 4.20313,-3.45312 z m 501.59375,14.64453 15.10352,8.52734 c -4.86047,-3.0506 -9.90482,-5.89861 -15.10352,-8.52734 z"
       transform="scale(0.26458333)" />
  </g>
  <g
     style="display:none"
     sodipodi:insensitive="true"
     inkscape:label="specks"
     id="layer1"
     inkscape:groupmode="layer">
    <rect
       style="display:inline;opacity:0.205788;fill:#ffffff;fill-opacity:0.995968;stroke-width:0.00457142"
       id="rect851"
       width="0.60013211"
       height="0.40363964"
       x="14.807344"
       y="60.321365" />
    <rect
       transform="rotate(-14.188381)"
       style="display:inline;opacity:0.707395;fill:#ffffff;fill-opacity:0.995968;stroke-width:0.00746066"
       id="rect851-5"
       width="0.74044859"
       height="0.87136132"
       x="-0.73475349"
       y="55.676231" />
    <rect
       transform="rotate(26.836019)"
       style="display:inline;opacity:0.488746;fill:#ffffff;fill-opacity:0.995968;stroke-width:0.00457142"
       id="rect851-9"
       width="0.60013211"
       height="0.40363964"
       x="39.190079"
       y="39.208027" />
    <rect
       transform="rotate(-66.618028)"
       style="display:inline;opacity:0.250804;fill:#ffffff;fill-opacity:0.995968;stroke-width:0.00457142"
       id="rect851-52"
       width="0.60013211"
       height="0.40363964"
       x="-43.617699"
       y="39.623314" />
    <rect
       transform="rotate(64.565404)"
       style="display:inline;opacity:0.456592;fill:#ffffff;fill-opacity:0.995968;stroke-width:0.00457142"
       id="rect851-7"
       width="0.60013211"
       height="0.40363964"
       x="70.634354"
       y="-3.861042" />
    <rect
       transform="rotate(33.346865)"
       style="display:inline;opacity:0.495177;fill:#ffffff;fill-opacity:0.995968;stroke-width:0.00457142"
       id="rect851-59"
       width="0.60013211"
       height="0.40363964"
       x="49.339897"
       y="59.237144" />
    <rect
       style="display:inline;opacity:0.713826;fill:#ffffff;fill-opacity:0.995968;stroke-width:0.0070465"
       id="rect851-6"
       width="0.97430944"
       height="0.59072834"
       x="10.363988"
       y="42.688259" />
    <rect
       transform="rotate(-78.132301)"
       style="display:inline;opacity:0.620579;fill:#ffffff;fill-opacity:0.995968;stroke-width:0.00457142"
       id="rect851-0"
       width="0.60013211"
       height="0.40363964"
       x="-38.681568"
       y="14.79393" />
    <rect
       style="display:inline;opacity:0.832797;fill:#ffffff;fill-opacity:0.995968;stroke-width:0.00457142"
       id="rect851-92"
       width="0.60013211"
       height="0.40363964"
       x="11.90747"
       y="36.374016" />
    <rect
       style="display:inline;opacity:0.620579;fill:#ffffff;fill-opacity:0.995968;stroke-width:0.00457142"
       id="rect851-1"
       width="0.60013211"
       height="0.40363964"
       x="8.1189241"
       y="33.380596" />
    <rect
       style="display:inline;opacity:0.916399;fill:#ffffff;fill-opacity:0.995968;stroke-width:0.00457142"
       id="rect851-3"
       width="0.60013211"
       height="0.40363964"
       x="17.426586"
       y="30.387178" />
    <rect
       style="display:inline;fill:#ffffff;fill-opacity:0.995968;stroke-width:0.00457142"
       id="rect851-8"
       width="0.60013211"
       height="0.40363964"
       x="65.713478"
       y="51.524223" />
    <rect
       transform="rotate(88.235914)"
       style="display:inline;opacity:0.282958;fill:#ffffff;fill-opacity:0.995968;stroke-width:0.00457142"
       id="rect851-38"
       width="0.60013211"
       height="0.40363964"
       x="52.442238"
       y="-109.75512" />
    <rect
       transform="rotate(77.657015)"
       style="display:inline;opacity:0.382637;fill:#ffffff;fill-opacity:0.995968;stroke-width:0.00767945"
       id="rect851-39"
       width="0.93086129"
       height="0.7343688"
       x="80.447113"
       y="-117.16959" />
    <rect
       style="display:inline;opacity:0.700965;fill:#ffffff;fill-opacity:0.995968;stroke-width:0.00457142"
       id="rect851-18"
       width="0.60013211"
       height="0.40363964"
       x="124.31869"
       y="50.995056" />
    <rect
       style="display:inline;opacity:0.665595;fill:#ffffff;fill-opacity:0.995968;stroke-width:0.00457142"
       id="rect851-79"
       width="0.60013211"
       height="0.40363964"
       x="132.78535"
       y="66.340889" />
    <rect
       style="display:inline;opacity:0.44373;fill:#ffffff;fill-opacity:0.995968;stroke-width:0.01015"
       id="rect851-384"
       width="1.1954446"
       height="0.99895215"
       x="133.11609"
       y="70.177345" />
    <rect
       style="display:inline;opacity:0.655949;fill:#ffffff;fill-opacity:0.995968;stroke-width:0.00457142"
       id="rect851-69"
       width="0.60013211"
       height="0.40363964"
       x="125.90618"
       y="69.912766" />
    <rect
       style="display:inline;opacity:0.710611;fill:#ffffff;fill-opacity:0.995968;stroke-width:0.00457142"
       id="rect851-68"
       width="0.60013211"
       height="0.40363964"
       x="138.07701"
       y="58.271095" />
    <path
       sodipodi:nodetypes="ccccc"
       d="m 28.250366,140.5578 1.380418,0.35966 0.524648,0.92121 -1.706458,-0.30572 z"
       transform="matrix(0.94934549,-0.31423422,0.83309714,0.55312671,0,0)"
       style="display:inline;opacity:0.643087;fill:#ffffff;fill-opacity:0.995968;stroke-width:0.0145089"
       id="rect851-07" />
    <rect
       style="display:inline;opacity:0.257235;fill:#ffffff;fill-opacity:0.995968;stroke-width:0.00457142"
       id="rect851-521"
       width="0.60013211"
       height="0.40363964"
       x="148.26347"
       y="61.975266" />
    <rect
       transform="rotate(-17.672659)"
       style="display:inline;opacity:0.78135;fill:#ffffff;fill-opacity:0.995968;stroke-width:0.00457142"
       id="rect851-67"
       width="0.60013211"
       height="0.40363964"
       x="127.79472"
       y="96.287636" />
    <rect
       style="display:inline;opacity:0.565916;fill:#ffffff;fill-opacity:0.995968;stroke-width:0.00457142"
       id="rect851-390"
       width="0.60013211"
       height="0.40363964"
       x="158.18535"
       y="61.049221" />
    <rect
       style="display:inline;opacity:0.726688;fill:#ffffff;fill-opacity:0.995968;stroke-width:0.00457142"
       id="rect851-10"
       width="0.60013211"
       height="0.40363964"
       x="147.20514"
       y="44.38047" />
    <rect
       style="display:inline;opacity:0.697749;fill:#ffffff;fill-opacity:0.995968;stroke-width:0.00457142"
       id="rect851-2"
       width="0.60013211"
       height="0.40363964"
       x="155.80411"
       y="46.894012" />
    <rect
       transform="rotate(48.74042)"
       style="display:inline;opacity:0.868167;fill:#ffffff;fill-opacity:0.995968;stroke-width:0.00457142"
       id="rect851-16"
       width="0.60013211"
       height="0.40363964"
       x="125.20451"
       y="-85.089355" />
    <rect
       transform="matrix(-0.04216444,0.99911068,-0.95876047,-0.28421535,0,0)"
       style="display:inline;opacity:0.33119;fill:#ffffff;fill-opacity:0.995968;stroke-width:0.00755685"
       id="rect851-02"
       width="1.5821069"
       height="0.41839257"
       x="-8.8433495"
       y="-159.77618" />
    <rect
       style="display:inline;opacity:0.344051;fill:#ffffff;fill-opacity:0.995968;stroke-width:0.00457142"
       id="rect851-4"
       width="0.60013211"
       height="0.40363964"
       x="153.02597"
       y="28.637764" />
    <rect
       style="display:inline;opacity:0.819936;fill:#ffffff;fill-opacity:0.995968;stroke-width:0.00457142"
       id="rect851-43"
       width="0.60013211"
       height="0.40363964"
       x="136.8864"
       y="30.092972" />
    <rect
       transform="rotate(41.688501)"
       style="display:inline;opacity:0.450161;fill:#ffffff;fill-opacity:0.995968;stroke-width:0.00696692"
       id="rect851-89"
       width="1.3938822"
       height="0.40363964"
       x="114.66978"
       y="-68.580925" />
    <rect
       style="display:inline;opacity:0.694534;fill:#ffffff;fill-opacity:0.995968;stroke-width:0.00457142"
       id="rect851-35"
       width="0.60013211"
       height="0.40363964"
       x="123.12806"
       y="32.871098" />
    <rect
       style="display:inline;opacity:0.385852;fill:#ffffff;fill-opacity:0.995968;stroke-width:0.00457142"
       id="rect851-17"
       width="0.60013211"
       height="0.40363964"
       x="127.62598"
       y="37.898182" />
    <rect
       style="display:inline;opacity:0.170418;fill:#ffffff;fill-opacity:0.995968;stroke-width:0.00608451"
       id="rect851-76"
       width="1.0631529"
       height="0.40363964"
       x="133.84369"
       y="41.337765" />
    <rect
       style="display:inline;opacity:0.848875;fill:#ffffff;fill-opacity:0.995968;stroke-width:0.00457142"
       id="rect851-93"
       width="0.60013211"
       height="0.40363964"
       x="126.83223"
       y="42.925262" />
    <rect
       y="118.80707"
       x="202.57806"
       height="0.87136137"
       width="0.74044859"
       id="rect851-5-5"
       style="display:inline;opacity:0.707395;fill:#ffffff;fill-opacity:0.995968;stroke-width:0.00746067"
       transform="rotate(-14.188381)" />
    <rect
       y="54.059101"
       x="222.94875"
       height="0.59072834"
       width="0.9743095"
       id="rect851-6-2"
       style="display:inline;opacity:0.713826;fill:#ffffff;fill-opacity:0.995968;stroke-width:0.00704649" />
    <rect
       y="44.751438"
       x="220.70369"
       height="0.40363964"
       width="0.60013211"
       id="rect851-1-7"
       style="display:inline;opacity:0.620579;fill:#ffffff;fill-opacity:0.995968;stroke-width:0.00457142" />
    <rect
       style="display:inline;opacity:0.713826;fill:#ffffff;fill-opacity:0.995968;stroke-width:0.00704649"
       id="rect851-6-2-0"
       width="0.9743095"
       height="0.59072834"
       x="273.59775"
       y="19.536036" />
    <rect
       style="display:inline;opacity:0.244373;fill:#ffffff;fill-opacity:0.995968;stroke-width:0.00704649"
       id="rect851-6-2-8"
       width="0.9743095"
       height="0.59072834"
       x="39.175644"
       y="107.46771" />
    <rect
       style="display:inline;opacity:0.405145;fill:#ffffff;fill-opacity:0.995968;stroke-width:0.00704649"
       id="rect851-6-2-80"
       width="0.9743095"
       height="0.59072834"
       x="84.076927"
       y="112.33202" />
    <rect
       style="display:inline;opacity:0.527331;fill:#ffffff;fill-opacity:0.995968;stroke-width:0.00704649"
       id="rect851-6-2-5"
       width="0.9743095"
       height="0.59072834"
       x="89.315407"
       y="118.31886" />
    <rect
       style="display:inline;opacity:0.360129;fill:#ffffff;fill-opacity:0.995968;stroke-width:0.00704649"
       id="rect851-6-2-1"
       width="0.9743095"
       height="0.59072834"
       x="152.1772"
       y="120.56392" />
    <rect
       transform="rotate(95.336334)"
       style="display:inline;opacity:0.713826;fill:#ffffff;fill-opacity:0.995968;stroke-width:0.00704649"
       id="rect851-6-2-02"
       width="0.9743095"
       height="0.59072834"
       x="94.174683"
       y="-173.74051" />
    <rect
       transform="rotate(81.629834)"
       style="display:inline;opacity:0.456592;fill:#ffffff;fill-opacity:0.995968;stroke-width:0.00704649"
       id="rect851-6-2-58"
       width="0.9743095"
       height="0.59072834"
       x="120.26134"
       y="-137.21523" />
    <rect
       style="display:inline;opacity:0.713826;fill:#ffffff;fill-opacity:0.995968;stroke-width:0.00704649"
       id="rect851-6-2-51"
       width="0.9743095"
       height="0.59072834"
       x="165.27341"
       y="100.73252" />
    <rect
       style="display:inline;opacity:0.713826;fill:#ffffff;fill-opacity:0.995968;stroke-width:0.00704649"
       id="rect851-6-2-6"
       width="0.9743095"
       height="0.59072834"
       x="160.4091"
       y="129.17" />
    <rect
       style="display:inline;opacity:0.713826;fill:#ffffff;fill-opacity:0.995968;stroke-width:0.00704649"
       id="rect851-6-2-2"
       width="0.9743095"
       height="0.59072834"
       x="286.13269"
       y="108.59024" />
  </g>
</svg>
