<svg width="484" height="324" xmlns="http://www.w3.org/2000/svg"><g fill="none" fill-rule="evenodd"><g opacity=".464" stroke="#408ABF" stroke-linecap="round" stroke-width="2"><path d="M183.417 246.927l-.868 4.924M180.52 248.954l4.925.869"/></g><g stroke="#408ABF" stroke-linecap="round" stroke-width="2"><path d="M209.417 188.927l-.868 4.924M206.52 190.954l4.925.869"/></g><g opacity=".479" stroke="#408ABF" stroke-linecap="round" stroke-width="2"><path d="M369.417 209.927l-.868 4.924M366.52 211.954l4.925.869"/></g><path stroke="#E7ECEF" stroke-width="4" stroke-linecap="round" d="M101 7v165.93l172 .07 11 12"/><path d="M468 1H104v169h169.436L286 183.53 298.564 170H468V1z" stroke="#408ABF" stroke-width="2" fill="#FFF"/><text font-family="Avenir-Black, Avenir" font-size="16" font-weight="700" fill="#434651" transform="translate(122 20)"><tspan x="0" y="31">$7.25</tspan></text><text font-family="Avenir-Medium, Avenir" font-size="10" font-weight="400" fill="#6B6F7D" transform="translate(122 20)"><tspan x="0" y="10">Cost per Batch</tspan></text><text font-family="Avenir-Black, Avenir" font-size="16" font-weight="700" fill="#434651" transform="translate(206 20)"><tspan x="0" y="31">$4.25</tspan></text><text font-family="Avenir-Medium, Avenir" font-size="10" font-weight="400" fill="#6B6F7D" transform="translate(206 20)"><tspan x="0" y="10">Cost per Package</tspan></text><path fill="#279C49" d="M121 89h63v20h-63z"/><path fill="#5FCF80" d="M188 89h118v20H188z"/><path fill="#5FAEE6" d="M310 89h101v20H310z"/><path fill="#408ABF" d="M415 89h36v20h-36z"/><text font-family="Avenir-Medium, Avenir" font-size="10" font-weight="400" fill="#6B6F7D" transform="translate(121 20)"><tspan x="0" y="62">Cost Breakdown</tspan></text><g><path fill="#279C49" d="M121 121h10v10h-10z"/><text font-family="Avenir-Medium, Avenir" font-size="10" font-weight="400" fill="#6B6F7D" transform="translate(121 119)"><tspan x="258" y="10">Overhead</tspan></text><text font-family="Avenir-Medium, Avenir" font-size="10" font-weight="400" fill="#6B6F7D" transform="translate(121 119)"><tspan x="193" y="10">Labor</tspan></text><text font-family="Avenir-Medium, Avenir" font-size="10" font-weight="400" fill="#6B6F7D" transform="translate(121 119)"><tspan x="108" y="10">Packaging</tspan></text><text font-family="Avenir-Medium, Avenir" font-size="10" font-weight="400" fill="#6B6F7D" transform="translate(121 119)"><tspan x="18" y="10">Ingredients</tspan></text><path fill="#5FCF80" d="M211 121h10v10h-10z"/><path fill="#5FAEE6" d="M296 121h10v10h-10z"/><path fill="#408ABF" d="M361 121h10v10h-10z"/></g><g><path stroke="#E7ECEF" stroke-width="2" stroke-linecap="round" d="M227 205l5 118h99"/><path d="M339.949 203H229.043l4.916 118h100.09l5.9-118z" stroke="#434651" stroke-width="2" fill="#E7ECEF"/><path stroke="#434651" stroke-width="2" stroke-linecap="round" d="M287.5 235.5h32"/><path d="M266 321c14.667-4 25.667-13.333 33-28 7.333-14.667 19.667-27 37-37l-3 66-67-1z" fill="#3EAAD6"/><path fill="#D8A480" d="M230 215h109v3H230z"/><path d="M229.108 203.325H242c7.29 42.981 15.29 68.006 24 75.073 8.71 7.068 31.038 21.103 66.982 42.106h-98.946l-4.928-117.18z" fill-opacity=".04" fill="#434651"/><path d="M339.949 203H229.043l4.916 118h100.09l5.9-118z" stroke="#408ABF" stroke-width="2"/><path d="M335.475 207.5H233.52l4.516 109h92.018l5.42-109z" stroke="#DBDEE0"/><path stroke="#434651" stroke-width="2" stroke-linecap="round" d="M287.5 241H314M287.5 247H318M287.5 253H305"/><g stroke-width="2"><path stroke="#434651" fill="#FFF" d="M243 233h36v73h-36z"/><path stroke="#E7ECEF" stroke-linecap="round" d="M248 246h26"/><path stroke="#434651" stroke-linecap="round" d="M248 239h26"/><path stroke="#E7ECEF" stroke-linecap="round" d="M271 250h3M272 254h2M272 258h2M248 258h5M248 254h4M248 250h6M248 265h26M271 269h3M272 273h2M272 277h2M248 277h5M248 273h4M248 269h6M248 284h26M271 288h3M272 292h2M272 296h2M248 296h5M248 292h4M248 288h6"/></g><g transform="translate(401 216)"><path d="M0 25.5v72.059a9 9 0 008.94 9L76 107h0" stroke="#E7ECEF" stroke-width="2" stroke-linecap="round"/><path stroke="#434651" stroke-width="2" fill="#E7ECEF" d="M5 1h74v11H5z"/><path stroke="#434651" stroke-width="2" fill="#FBFBFB" d="M8 12h68v5H8z"/><path stroke="#434651" stroke-width="2" fill="#D8A480" d="M2 32h74v11H2z"/><path d="M83 98a8 8 0 01-8 8H9a8 8 0 01-8-8V24l.004-.25a8 8 0 017.747-7.746L9 16h66a8 8 0 017.996 7.75L83 24v74z" fill="#E7ECEF"/><path d="M1.93 28.764v-7.188c2.713-3.438 5.403-4.907 8.07-4.408 2.667.499 25 .276 67-.668l5.189 6.132-9.37 5.04-70.89 1.092z" fill="#D8A480"/><path d="M1.93 27.14c35.684.641 61.087-2.406 76.21-9.14 1.983 0 3.543 2.88 3.815 6.608.312 4.261.312 14.761 0 31.5L1.93 64.695V27.14z" fill="#8363B2"/><path d="M1.93 55c41.799-10.433 68.474-13.766 80.025-10v38L1.93 84.138V55z" fill="#D8A480"/><path d="M2.62 79.95c45.364-1.949 71.564-6.942 78.597-14.98.767-2.278.936 9.613.509 35.674-1.837 2.826-4.412 4.24-7.726 4.24H8.306c-3.791-.735-5.86-2.885-6.204-6.452-.345-3.567-.173-9.727.517-18.481z" fill="#FBFBFB"/><path d="M10 17.168c5.273 53.678 22.94 80.014 53 79.009 29.402-.487 16.477 8.063 14 8.706-15.108 2.35-38.441 2.35-70 0l-5.07-5.596V21.576L10 17.168z" fill-opacity=".045" fill="#434651"/><path d="M75 17l-66.233.004a6.873 6.873 0 00-4.733 2.093c-1.21 1.25-1.973 2.97-2.034 4.918V98c0 1.933.784 3.683 2.05 4.95A6.978 6.978 0 009 105h66a6.978 6.978 0 004.95-2.05A6.978 6.978 0 0082 98l-.004-74.233a6.978 6.978 0 00-2.125-4.794A6.977 6.977 0 0075 17z" stroke="#434651" stroke-width="2"/><circle fill="#6F4AA6" cx="34" cy="33" r="2"/><circle fill="#6F4AA6" cx="78" cy="39" r="2"/><circle fill="#6F4AA6" cx="46.5" cy="38.5" r="2.5"/><circle fill="#6F4AA6" cx="65" cy="31" r="2"/><circle fill="#6F4AA6" cx="13" cy="43" r="3"/><path fill-opacity=".13" fill="#434651" d="M9 13h66v2H9z"/><path stroke="#434651" stroke-width="2" fill="#FFF" d="M11 56h62v26H11z"/><path stroke="#434651" stroke-width="2" stroke-linecap="round" d="M16.5 62h16"/><path stroke="#E7ECEF" stroke-width="2" stroke-linecap="round" d="M36.5 62H67M16.5 67H44M48 67h19M16.5 72H30M34 72h19.5"/></g><g><path d="M183.5 310h-20c-5.523 0-10 4.477-10 10h40c0-5.523-4.477-10-10-10zM183.5 300h-20c-5.523 0-10 4.477-10 10h40c0-5.523-4.477-10-10-10z" stroke="#434651" stroke-width="2" fill="#D8A480"/><path d="M2.5 274h157v46H2.5v-46z" stroke="#434651" stroke-width="2" fill="#3EAAD6"/><path stroke="#434651" stroke-width="2" fill="#228DB8" d="M159.5 274h-53v46h53z"/><g transform="matrix(-1 0 0 1 178.5 280)"><path d="M3 20H.5C1.5 31.333 6 38.167 14 40.5c3.5.5 4.283.46 3.5-1C8.167 35.167 3.333 28.667 3 20z" fill-opacity=".143" fill="#434651"/><circle fill="#D8A480" cx="23" cy="20" r="20"/><path d="M40.439 11c-2 16-12 24.333-30 25 11.5 6 14 5 22.5 2 9.333-8 11.833-17 7.5-27z" fill-opacity=".097" fill="#434651"/><circle stroke="#434651" stroke-width="2" cx="23" cy="20" r="20"/><path fill="#805538" d="M13.143 10.074l5.346 2.724L17 18.5l-7.489-1.298zM28.5 24l5.5-1v7h-6zM29.704 7.687l4.053 1.352-4.405 5.44-3.109-2.518z"/></g><path stroke="#E7ECEF" stroke-width="2" stroke-linecap="round" d="M194.5 322H1.5"/><path d="M106.5 269h.953l52.047 5h-53v-5z" stroke="#434651" stroke-width="2" fill="#FBFBFB"/><path d="M2.5 269h104v5H2.5v-5z" stroke="#434651" stroke-width="2" fill="#E7ECEF"/><path stroke-opacity=".227" stroke="#434651" stroke-width="2" d="M105.5 276H3.5"/><g stroke-width="2"><path stroke="#434651" fill="#FFF" d="M96.5 285h-85v24h85z"/><path stroke="#434651" stroke-linecap="round" d="M90.5 291h-20"/><path stroke="#E7ECEF" stroke-linecap="round" d="M65.5 291h-21M39.5 291h-21M65.5 295h-6M47.5 295h-3M46.5 299h-2M65.5 299h-4M46.5 303h-2M65.5 303h-5M39.5 295h-6M21.5 295h-3M20.5 299h-2M39.5 299h-4M20.5 303h-2M39.5 303h-5"/></g></g></g></g></svg>