<svg xmlns="http://www.w3.org/2000/svg" xmlns:xlink="http://www.w3.org/1999/xlink" viewBox="0 0 344.75 481"><defs><style>.cls-1,.cls-2,.cls-29,.cls-64,.cls-75{fill:none;}.cls-1{stroke:#9c9c9c;}.cls-1,.cls-64{stroke-width:2.5px;}.cls-3{fill:#eed1b6;}.cls-4{isolation:isolate;}.cls-21,.cls-5{fill:#333;}.cls-6{clip-path:url(#clip-path);}.cls-7{fill:url(#linear-gradient);}.cls-8{fill:#5e5e5e;}.cls-20,.cls-61,.cls-67,.cls-9{fill:#fff;}.cls-10{fill:url(#linear-gradient-2);}.cls-11{fill:#dbdbdb;}.cls-12{fill:#f0f0f0;}.cls-13{fill:url(#linear-gradient-3);}.cls-14{fill:url(#linear-gradient-4);}.cls-15{fill:#a1a1a1;}.cls-16{fill:#d1d1d1;}.cls-17{fill:url(#linear-gradient-5);}.cls-18{fill:#bb9d83;}.cls-19{opacity:0.14;}.cls-19,.cls-57,.cls-59,.cls-68,.cls-72{mix-blend-mode:multiply;}.cls-20{opacity:0.27;}.cls-20,.cls-61{mix-blend-mode:overlay;}.cls-21{stroke:#333;stroke-miterlimit:10;stroke-width:0.5px;}.cls-22{fill:#2c4580;}.cls-23{clip-path:url(#clip-path-2);}.cls-24{fill:url(#linear-gradient-6);}.cls-25{fill:url(#linear-gradient-7);}.cls-26{clip-path:url(#clip-path-3);}.cls-27{fill:#3b5caa;}.cls-28{clip-path:url(#clip-path-4);}.cls-29{stroke:#2c4580;stroke-width:2px;opacity:0.71;}.cls-30{fill:url(#linear-gradient-8);}.cls-31{fill:url(#linear-gradient-9);}.cls-32{fill:url(#linear-gradient-10);}.cls-33{clip-path:url(#clip-path-5);}.cls-34{fill:url(#linear-gradient-11);}.cls-35{opacity:0.65;}.cls-36{fill:url(#linear-gradient-12);}.cls-37{fill:url(#linear-gradient-13);}.cls-38{fill:#d9d9d9;}.cls-39{fill:url(#linear-gradient-14);}.cls-40{clip-path:url(#clip-path-6);}.cls-41{fill:url(#linear-gradient-15);}.cls-42{fill:#666;}.cls-43{fill:url(#linear-gradient-16);}.cls-44{fill:url(#linear-gradient-17);}.cls-45{fill:url(#linear-gradient-18);}.cls-46{fill:#0d6f35;}.cls-47{fill:#7a7a7a;}.cls-48{fill:#d9b593;}.cls-49{fill:#c2c2c2;}.cls-50{fill:#c7a687;}.cls-51{fill:#e8d3be;}.cls-52{fill:url(#linear-gradient-19);}.cls-53{clip-path:url(#clip-path-7);}.cls-54,.cls-64{stroke:#3b5caa;}.cls-54{stroke-width:0.8px;fill:url(#linear-gradient-20);}.cls-55{fill:#4f4f4f;}.cls-56{fill:url(#linear-gradient-21);}.cls-57{opacity:0.09;}.cls-58{fill:#231f20;}.cls-59{opacity:0.11;}.cls-60{clip-path:url(#clip-path-8);}.cls-61{opacity:0.55;}.cls-62{fill:#949494;}.cls-63{clip-path:url(#clip-path-9);}.cls-65{fill:url(#linear-gradient-23);}.cls-66{fill:url(#linear-gradient-24);}.cls-67{opacity:0.69;}.cls-68{opacity:0.17;}.cls-69{fill:url(#linear-gradient-25);}.cls-70{clip-path:url(#clip-path-10);}.cls-71{opacity:0.36;fill:url(#linear-gradient-26);}.cls-72{opacity:0.06;}.cls-73{fill:#00c8fa;opacity:0.24;}.cls-74{fill:url(#radial-gradient);}.cls-75{stroke:#fff;stroke-linecap:round;stroke-linejoin:round;stroke-width:1.5px;opacity:0.2;}</style><clipPath id="clip-path"><circle id="SVGID" class="cls-1" cx="269.08" cy="405.42" r="74"/></clipPath><linearGradient id="linear-gradient" x1="268.45" y1="479.42" x2="268.45" y2="331.42" gradientUnits="userSpaceOnUse"><stop offset="0" stop-color="#c4c4c4"/><stop offset="0.23" stop-color="#bdbdbd"/><stop offset="0.56" stop-color="#aaa"/><stop offset="0.95" stop-color="#8c8c8c"/><stop offset="1" stop-color="#878787"/></linearGradient><linearGradient id="linear-gradient-2" x1="216.94" y1="436.58" x2="216.94" y2="383.01" gradientUnits="userSpaceOnUse"><stop offset="0" stop-color="#ecfbfe"/><stop offset="0.53" stop-color="#fafeff"/><stop offset="1" stop-color="#fff"/></linearGradient><linearGradient id="linear-gradient-3" x1="293.51" y1="398.98" x2="293.51" y2="345.41" xlink:href="#linear-gradient-2"/><linearGradient id="linear-gradient-4" x1="319.37" y1="353.35" x2="344.83" y2="353.35" xlink:href="#linear-gradient-2"/><linearGradient id="linear-gradient-5" x1="255.1" y1="417.5" x2="255.1" y2="363.93" gradientUnits="userSpaceOnUse"><stop offset="0" stop-color="#2c4580"/><stop offset="1" stop-color="#3b5caa"/></linearGradient><clipPath id="clip-path-2"><polygon id="SVGID-2" data-name="SVGID" class="cls-2" points="267.82 376.38 242.37 388.85 233.35 383.28 233.35 370.83 242.37 376.4 267.82 363.93 267.82 376.38"/></clipPath><linearGradient id="linear-gradient-6" x1="235.18" y1="388.85" x2="235.18" y2="367.79" gradientUnits="userSpaceOnUse"><stop offset="0" stop-color="#0d6f35"/><stop offset="1" stop-color="#119447"/></linearGradient><linearGradient id="linear-gradient-7" x1="257.23" y1="380.22" x2="257.23" y2="353.11" gradientUnits="userSpaceOnUse"><stop offset="0" stop-color="#119447"/><stop offset="1" stop-color="#41a96c"/></linearGradient><clipPath id="clip-path-3"><polygon id="SVGID-3" data-name="SVGID" class="cls-2" points="267.82 402.53 242.37 415 233.35 409.43 233.35 407.14 242.37 412.71 267.82 400.24 267.82 402.53"/></clipPath><clipPath id="clip-path-4"><polygon id="SVGID-4" data-name="SVGID" class="cls-2" points="233.44 370.83 258.89 358.37 267.91 363.93 242.45 376.4 233.44 370.83"/></clipPath><linearGradient id="linear-gradient-8" x1="284.16" y1="388.63" x2="311.3" y2="388.63" gradientUnits="userSpaceOnUse"><stop offset="0" stop-color="#bb8c75"/><stop offset="1" stop-color="#a38779"/></linearGradient><linearGradient id="linear-gradient-9" x1="299.93" y1="490.68" x2="306.84" y2="414.82" gradientUnits="userSpaceOnUse"><stop offset="0" stop-color="#3b5caa"/><stop offset="1" stop-color="#2c4580"/></linearGradient><linearGradient id="linear-gradient-10" x1="259.45" y1="419.56" x2="253.89" y2="480.22" xlink:href="#linear-gradient-8"/><clipPath id="clip-path-5"><circle id="SVGID-5" data-name="SVGID" class="cls-1" cx="76" cy="295.11" r="74"/></clipPath><linearGradient id="linear-gradient-11" x1="72.72" y1="357.79" x2="72.72" y2="205.92" gradientUnits="userSpaceOnUse"><stop offset="0" stop-color="#7fb3bf"/><stop offset="1" stop-color="#a9efff"/></linearGradient><linearGradient id="linear-gradient-12" x1="70.83" y1="394.54" x2="70.83" y2="322.11" gradientUnits="userSpaceOnUse"><stop offset="0" stop-color="#666"/><stop offset="1" stop-color="#4d4d4d"/></linearGradient><linearGradient id="linear-gradient-13" x1="84" y1="284.97" x2="235" y2="284.97" gradientUnits="userSpaceOnUse"><stop offset="0" stop-color="#fff"/><stop offset="0.83" stop-color="#ecfbfe"/></linearGradient><linearGradient id="linear-gradient-14" x1="83.34" y1="234.89" x2="157.34" y2="234.89" gradientUnits="userSpaceOnUse"><stop offset="0" stop-color="#c2c2c2"/><stop offset="1" stop-color="#a3a3a3"/></linearGradient><clipPath id="clip-path-6"><path id="SVGID-6" data-name="SVGID" class="cls-3" d="M61,272.47c.16.45,0,1.1-.59,1.15,0,0-.08,1.62-.08,1.77a2,2,0,0,1-.15.87,1.69,1.69,0,0,1-.44.5,5.3,5.3,0,0,1-6.1.34,6.91,6.91,0,0,1-3.09-5.71c0-1.27-.17-3,.35-4,.86-1.63,2.82-1.29,4.69-1.29,1.66,0,4.37,1.27,4.74,3.05.15.72.08,1.71.24,2.43a3.47,3.47,0,0,0,.34.73Z"/></clipPath><linearGradient id="linear-gradient-15" x1="56.35" y1="285.57" x2="56.35" y2="262.82" gradientUnits="userSpaceOnUse"><stop offset="0" stop-color="#dac0a7"/><stop offset="1" stop-color="#eed1b6"/></linearGradient><linearGradient id="linear-gradient-16" x1="56.2" y1="347.14" x2="56.2" y2="303.78" xlink:href="#linear-gradient-2"/><linearGradient id="linear-gradient-17" x1="82.33" y1="334.17" x2="179.7" y2="334.17" gradientUnits="userSpaceOnUse"><stop offset="0" stop-color="#757575"/><stop offset="1" stop-color="#9c9c9c"/></linearGradient><linearGradient id="linear-gradient-18" x1="56.07" y1="305.69" x2="56.07" y2="281.78" xlink:href="#linear-gradient-7"/><linearGradient id="linear-gradient-19" x1="66.62" y1="298.36" x2="66.62" y2="287.26" gradientUnits="userSpaceOnUse"><stop offset="0" stop-color="#eed1b6"/><stop offset="1" stop-color="#dac0a7"/></linearGradient><clipPath id="clip-path-7"><circle id="SVGID-7" data-name="SVGID" class="cls-1" cx="269.08" cy="185.56" r="74"/></clipPath><linearGradient id="linear-gradient-20" x1="259.08" y1="260.75" x2="259.08" y2="109.5" xlink:href="#linear-gradient-5"/><linearGradient id="linear-gradient-21" x1="136.98" y1="183.9" x2="406.12" y2="183.9" gradientTransform="translate(96.22 -92.51) rotate(23.61)" gradientUnits="userSpaceOnUse"><stop offset="0" stop-color="#ecfbfe"/><stop offset="0.17" stop-color="#eff6f7"/><stop offset="0.46" stop-color="#f2f2f2"/><stop offset="1" stop-color="#ecfbfe"/></linearGradient><clipPath id="clip-path-8"><path id="SVGID-8" data-name="SVGID" class="cls-2" d="M227.21,184c2.28,5.21-1.62,12.36-7.81,15.07s-13.06.67-15.33-4.54.89-11.63,7.08-14.34S224.93,178.78,227.21,184Z"/></clipPath><clipPath id="clip-path-9"><circle id="SVGID-9" data-name="SVGID" class="cls-1" cx="76" cy="76" r="74"/></clipPath><linearGradient id="linear-gradient-23" x1="76" y1="150" x2="76" y2="2" gradientUnits="userSpaceOnUse"><stop offset="0" stop-color="#41a96c"/><stop offset="1" stop-color="#119447"/></linearGradient><linearGradient id="linear-gradient-24" x1="81.29" y1="259.46" x2="81.29" y2="91.46" gradientUnits="userSpaceOnUse"><stop offset="0" stop-color="#119447"/><stop offset="1" stop-color="#0d6f35"/></linearGradient><linearGradient id="linear-gradient-25" x1="49.96" y1="117.5" x2="49.96" y2="26.99" xlink:href="#linear-gradient-2"/><clipPath id="clip-path-10"><path id="SVGID-10" data-name="SVGID" class="cls-2" d="M76.37,49.42c-1.3-1.3-3.07-2.91-3.64-4.7a3.18,3.18,0,0,1,0-1.91,1.9,1.9,0,0,1,.31-.55,2.56,2.56,0,0,0,.46-.74,7.25,7.25,0,0,0,0-1.87,2.25,2.25,0,0,0-1.77-2.23c-2.69-.31-13.74,0-23,0-9,0-17.8-.31-20.49,0a2.25,2.25,0,0,0-1.77,2.23,7.25,7.25,0,0,0,0,1.87,2.56,2.56,0,0,0,.46.74,1.9,1.9,0,0,1,.31.55,3.18,3.18,0,0,1,0,1.91c-.58,1.79-2.34,3.4-3.64,4.7A2,2,0,0,0,23,50.83v60a2,2,0,0,0,.4,1.2l3.5,4.67a2,2,0,0,0,1.6.8h43a2,2,0,0,0,1.6-.8l3.5-4.67a2,2,0,0,0,.4-1.2v-60A2,2,0,0,0,76.37,49.42Z"/></clipPath><linearGradient id="linear-gradient-26" x1="49.18" y1="101.44" x2="49.18" y2="61" gradientUnits="userSpaceOnUse"><stop offset="0" stop-color="#09cafa"/><stop offset="1" stop-color="#6bdffc"/></linearGradient><radialGradient id="radial-gradient" cx="110" cy="83.75" r="21.67" xlink:href="#linear-gradient-9"/></defs><title>Foodplanet-homepage-illustration</title><g class="cls-4"><g id="Dashed_Lines" data-name="Dashed Lines"><rect class="cls-5" x="142.15" y="184.31" width="25.79" height="2.5"/><polygon class="cls-5" points="75.31 197.35 77.81 197.35 77.81 186.81 90.56 186.81 90.56 184.31 75.31 184.31 75.31 197.35"/><rect class="cls-5" x="180.84" y="184.31" width="25.79" height="2.5"/><rect class="cls-5" x="103.45" y="184.31" width="25.79" height="2.5"/><polygon class="cls-5" points="86.78 204.89 84.95 203.19 76.56 212.22 68.16 203.19 66.33 204.89 76.56 215.89 86.78 204.89"/><rect class="cls-5" x="106.5" y="403.42" width="25.79" height="2.5"/><polygon class="cls-5" points="77.24 396.49 74.74 396.49 74.74 405.92 93.61 405.92 93.61 403.42 77.24 403.42 77.24 396.49"/><rect class="cls-5" x="74.74" y="357.79" width="2.5" height="25.79"/><rect class="cls-5" x="145.2" y="403.42" width="25.79" height="2.5"/><polygon class="cls-5" points="189.57 404.76 178.58 394.54 176.87 396.37 176.88 396.38 176.88 396.38 185.9 404.76 176.87 413.15 178.58 414.98 178.58 414.98 178.59 414.99 189.58 404.77 189.57 404.76 189.57 404.76"/><rect class="cls-5" x="177.62" y="74.75" width="25.79" height="2.5"/><rect class="cls-5" x="138.92" y="74.75" width="25.79" height="2.5"/><polygon class="cls-5" points="267.75 87.8 270.25 87.8 270.25 74.75 255 74.75 255 77.25 267.75 77.25 267.75 87.8"/><rect class="cls-5" x="216.31" y="74.75" width="25.79" height="2.5"/><polygon class="cls-5" points="260.61 93.63 258.77 95.34 269 106.33 279.22 95.34 277.39 93.63 269 102.66 260.61 93.63"/></g><g id="Frame_4" data-name="Frame 4"><g class="cls-6"><rect class="cls-7" x="193.82" y="331.42" width="149.27" height="148"/><polygon class="cls-8" points="194.11 415.57 325.32 351.33 341.53 378.38 337.84 380.05 203.69 446.71 194.11 415.57"/><polyline class="cls-9" points="200.22 393.06 203.75 395.24 208.2 393.06 208.03 434.25 204.21 436.58 200.22 434.17 200.22 394.16"/><polyline class="cls-10" points="229.67 383.01 204.21 395.48 204.21 436.58 229.67 424.12 229.67 383.01 229.67 424.12"/><path class="cls-11" d="M204.21,436.6l-9-5.57v-41.1l9,5.57v41.1"/><polygon class="cls-12" points="195.19 389.91 220.65 377.44 229.67 383.01 204.21 395.48 195.19 389.91"/><polyline class="cls-9" points="277.25 355.7 280.78 357.88 285.23 355.7 285.06 396.88 281.24 399.21 277.25 396.8 277.25 356.8"/><polyline class="cls-13" points="306.24 345.41 280.78 357.88 280.78 398.98 306.24 386.52 306.24 345.41 306.24 386.52"/><path class="cls-11" d="M280.78,399l-9-5.57v-41.1l9,5.57V399"/><polygon class="cls-12" points="271.76 352.31 297.22 339.84 306.24 345.41 280.78 357.88 271.76 352.31"/><polyline class="cls-9" points="315.38 336.61 318.91 338.79 323.36 336.61 323.19 377.79 319.37 380.12 315.38 377.71 315.38 337.71"/><polyline class="cls-14" points="344.83 326.57 319.37 339.03 319.37 380.14 344.83 367.67 344.83 326.57 344.83 367.67"/><path class="cls-11" d="M319.37,380.14l-9-5.57v-41.1l9,5.57v41.1"/><polygon class="cls-12" points="310.35 333.46 335.81 321 344.83 326.57 319.37 339.03 310.35 333.46"/><polygon class="cls-15" points="203.72 448.12 342.96 379.95 341.85 374.38 199.66 443.99 203.72 448.12"/><rect class="cls-16" x="186.45" y="414.4" width="144.69" height="2" transform="translate(-156.32 156.14) rotate(-26.09)"/><polyline class="cls-17" points="267.82 363.93 242.37 376.4 242.37 417.5 267.82 405.04 267.82 363.93 267.82 405.04"/><path class="cls-18" d="M262.68,388.24c1.51,3-.59,8.2-4.69,11.68s-8.64,3.89-10.15.92.59-8.2,4.69-11.68S261.17,385.27,262.68,388.24Z"/><path class="cls-18" d="M262.68,388.24c1.51,3-.59,8.2-4.69,11.68s-8.64,3.89-10.15.92.59-8.2,4.69-11.68S261.17,385.27,262.68,388.24Z"/><path class="cls-19" d="M258,398.66c-4.1,3.48-8.64,3.89-10.15.92a4.63,4.63,0,0,1-.45-1.64,5.29,5.29,0,0,0,.45,2.89c1.51,3,6.05,2.56,10.15-.92,3.42-2.91,5.44-7,5.14-10C262.87,392.71,261,396.14,258,398.66Z"/><path class="cls-20" d="M252.4,390c4.1-3.48,8.64-3.89,10.15-.92A5.27,5.27,0,0,1,263,392a5.78,5.78,0,0,0-.33-3.73c-1.51-3-6.05-2.56-10.15.92-3,2.53-4.9,6-5.14,8.83A14.84,14.84,0,0,1,252.4,390Z"/><path class="cls-21" d="M251.44,397.17c.21.42-.08,1.16-.65,1.64s-1.21.54-1.42.12.08-1.16.65-1.64S251.23,396.75,251.44,397.17Z"/><path class="cls-21" d="M258,389a1.29,1.29,0,0,1-1,.93.54.54,0,0,1-.66-.68,1.29,1.29,0,0,1,1-.93A.54.54,0,0,1,258,389Z"/><path class="cls-21" d="M260.41,392.81c.41.15.44.81.07,1.48s-1,1.09-1.41.94-.44-.81-.07-1.48S260,392.66,260.41,392.81Z"/><path class="cls-22" d="M242.37,417.5l-9-5.57v-41.1l9,5.57v41.1"/><g class="cls-23"><polyline class="cls-24" points="242.2 376.46 228.16 367.79 228.16 380.18 242.2 388.85"/><polyline class="cls-25" points="242.2 388.85 243.75 388.09 272.26 374.13 272.26 361.74 243.75 375.7 242.2 376.46"/><path class="cls-9" d="M271,363.82v9.5l-27.78,13.6-.91.44-12.81-7.91V370l12.06,7.55.61.38.65-.32L271,363.82m1.3-2.08-30.05,14.68-14-8.8v12.55l14,8.67,1.55-.76,28.51-14V361.74Z"/><polyline class="cls-2" points="242.2 376.46 228.16 367.79 228.16 380.18 242.2 388.85"/></g><path class="cls-9" d="M244.35,382.72v-.1a6.11,6.11,0,0,1,.5-2.12,7.84,7.84,0,0,1,1.08-1.84,3.92,3.92,0,0,1,1.26-1.11.7.7,0,0,1,.73,0,.66.66,0,0,1,.23.57,2.43,2.43,0,0,1-.36,1.13,2.75,2.75,0,0,1-.44.61.78.78,0,0,1-.2.16.38.38,0,0,1-.17,0,.3.3,0,0,1-.14,0,.2.2,0,0,1-.12-.17.26.26,0,0,1,.05-.17,4.41,4.41,0,0,0,.74-1.17,1,1,0,0,0,.08-.35q0-.32-.31-.17a2.8,2.8,0,0,0-1,1,7.54,7.54,0,0,0-.8,1.6,5.1,5.1,0,0,0-.36,1.55v.13q0,.75.32.83a.41.41,0,0,0,.27-.05,1.76,1.76,0,0,0,.3-.19l.28-.25a7.36,7.36,0,0,0,.58-.69c.07-.09.13-.11.18-.06a.22.22,0,0,1,.06.17.59.59,0,0,1-.05.28,1.81,1.81,0,0,1-.18.25,3.07,3.07,0,0,1-.3.32,3.43,3.43,0,0,1-.82.59,2,2,0,0,1-.65.22.68.68,0,0,1-.42-.08A1,1,0,0,1,244.35,382.72Z"/><path class="cls-9" d="M248.21,382a.46.46,0,0,1-.22-.23,1,1,0,0,1-.08-.44,2.61,2.61,0,0,1,.07-.6,4.24,4.24,0,0,1,.2-.65,5.08,5.08,0,0,1,.32-.65,4.85,4.85,0,0,1,.41-.61,3,3,0,0,1,1-.87q.68-.34.93.14a1.63,1.63,0,0,1,0,1,4.67,4.67,0,0,1-.51,1.3,4.25,4.25,0,0,1-.87,1.1,2.25,2.25,0,0,1-.5.34,1.56,1.56,0,0,1-.44.15A.56.56,0,0,1,248.21,382Zm.64-1.93a4.77,4.77,0,0,0-.16.58,2.48,2.48,0,0,0-.06.52.61.61,0,0,0,.07.33q.07.1.22,0a1,1,0,0,0,.3-.25,3,3,0,0,0,.29-.42,5,5,0,0,0,.26-.53c.08-.19.15-.38.22-.58a3.4,3.4,0,0,0,.2-1c0-.24,0-.37-.15-.39a.3.3,0,0,0-.17,0,.87.87,0,0,0-.25.22,3.13,3.13,0,0,0-.28.4,5.49,5.49,0,0,0-.27.52C249,379.67,248.91,379.87,248.85,380.06Z"/><path class="cls-9" d="M251.71,380.27a.45.45,0,0,1-.22-.23,1,1,0,0,1-.08-.44,2.57,2.57,0,0,1,.07-.6,4.2,4.2,0,0,1,.2-.65,5.16,5.16,0,0,1,.32-.66,4.86,4.86,0,0,1,.41-.61,3,3,0,0,1,1-.87q.68-.34.93.15a1.63,1.63,0,0,1,0,1,4.7,4.7,0,0,1-.51,1.3,4.26,4.26,0,0,1-.87,1.1,2.28,2.28,0,0,1-.5.34,1.59,1.59,0,0,1-.44.15A.57.57,0,0,1,251.71,380.27Zm.64-1.93a4.62,4.62,0,0,0-.16.58,2.49,2.49,0,0,0-.06.52.61.61,0,0,0,.07.33c0,.07.12.07.22,0a.94.94,0,0,0,.3-.25,3,3,0,0,0,.29-.42,5.2,5.2,0,0,0,.26-.53c.08-.19.15-.38.22-.58a3.4,3.4,0,0,0,.2-1q0-.37-.15-.39a.29.29,0,0,0-.17,0,.84.84,0,0,0-.25.22,3.08,3.08,0,0,0-.28.4,5.28,5.28,0,0,0-.27.52A6.26,6.26,0,0,0,252.35,378.34Z"/><path class="cls-9" d="M257.1,377.86q-.76.37-1.2-.84c-.12.28-.22.52-.29.74l-.2.55a3.39,3.39,0,0,1-.16.37.42.42,0,0,1-.17.18.47.47,0,0,1-.17.05.3.3,0,0,1-.13,0,.18.18,0,0,1-.12-.18.94.94,0,0,1,.07-.23l.13-.33a27,27,0,0,0,1.13-3.8q.19-.82.27-1.44a.49.49,0,0,1,.27-.41.33.33,0,0,1,.23,0,.21.21,0,0,1,.17.22,3.15,3.15,0,0,1,0,.39c0,.15-.06.32-.1.5s-.09.38-.14.58q-.22.8-.32,1.15l-.31,1-.09.27a6.92,6.92,0,0,0,1.16-1.26,1.11,1.11,0,0,0,.23-.55c0-.07,0-.11-.07-.12l-.09,0s0,0,0-.09a.51.51,0,0,1,.12-.19.85.85,0,0,1,.25-.18,1.21,1.21,0,0,1,.24-.09.34.34,0,0,1,.17,0c.11,0,.16.11.16.25a1.16,1.16,0,0,1-.09.43,2.28,2.28,0,0,1-.28.48,8.06,8.06,0,0,1-1.2,1.21,1,1,0,0,0,.38.59.45.45,0,0,0,.48.08.79.79,0,0,0,.2-.14l.12-.12.07-.05c.06,0,.08,0,.08.06a.45.45,0,0,1,0,.17,1.37,1.37,0,0,1-.08.18,1.66,1.66,0,0,1-.14.21A1.44,1.44,0,0,1,257.1,377.86Z"/><path class="cls-9" d="M259.41,376.08c.06,0,.09,0,.09.07a.79.79,0,0,1-.14.38,1.27,1.27,0,0,1-.54.5q-.39.19-.53-.05a.45.45,0,0,1-.05-.24,1.55,1.55,0,0,1,.05-.37q.06-.22.14-.47t.18-.51l.18-.51a3.16,3.16,0,0,0,.19-.71.31.31,0,0,0,0-.18l-.07,0h-.07s0,0,0-.07a.27.27,0,0,1,0-.13.89.89,0,0,1,.12-.15,1.33,1.33,0,0,1,.35-.25c.33-.16.49-.16.49,0a2.49,2.49,0,0,1-.16.76c-.1.31-.19.56-.27.75l-.2.56a3.1,3.1,0,0,0-.22.84c0,.1,0,.12.15.07a.82.82,0,0,0,.22-.14Zm.68-3.94a1.23,1.23,0,0,1-.17.21,1,1,0,0,1-.2.16.4.4,0,0,1-.19.07.26.26,0,0,1-.16,0,.3.3,0,0,1-.14-.26.64.64,0,0,1,.06-.28.92.92,0,0,1,.14-.21,1.05,1.05,0,0,1,.3-.25l.22-.09a.33.33,0,0,1,.14,0,.18.18,0,0,1,.16.19.83.83,0,0,1,0,.29A1.14,1.14,0,0,1,260.09,372.14Z"/><path class="cls-9" d="M260.27,375.11a2.75,2.75,0,0,1,.1-.6,4.44,4.44,0,0,1,.22-.62,5.68,5.68,0,0,1,.33-.63,5.22,5.22,0,0,1,.41-.59,3,3,0,0,1,1-.83q.57-.28.76.1a.72.72,0,0,1,.06.35,1.37,1.37,0,0,1-.08.44,2.17,2.17,0,0,1-.22.45,3.32,3.32,0,0,1-.34.44,4.4,4.4,0,0,1-.42.41,5.21,5.21,0,0,1-1,.67.76.76,0,0,0,0,.15.79.79,0,0,0,0,.2.36.36,0,0,0,.08.17q.12.14.35,0a2.57,2.57,0,0,0,.75-.6,2.17,2.17,0,0,0,.21-.26.45.45,0,0,1,.14-.15.08.08,0,0,1,.1,0,.19.19,0,0,1,0,.14.72.72,0,0,1-.1.35,3.11,3.11,0,0,1-1.25,1,.89.89,0,0,1-.79.09C260.36,375.75,260.26,375.5,260.27,375.11Zm1.94-2.79a1.73,1.73,0,0,0-.67.81,6,6,0,0,0-.44,1.19,3.13,3.13,0,0,0,1-.91,1.72,1.72,0,0,0,.38-.87C262.44,372.31,262.37,372.24,262.21,372.32Z"/><path class="cls-9" d="M263.29,374.2a.56.56,0,0,1,0-.21,1,1,0,0,1,.11-.2.82.82,0,0,1,.29-.27c.09,0,.13,0,.13.07s.08.35.23.37a.31.31,0,0,0,.17,0l.15-.09.12-.12a.48.48,0,0,0,.12-.29.35.35,0,0,0-.06-.21.93.93,0,0,0-.15-.16l-.19-.17a1,1,0,0,1-.4-.79,1.51,1.51,0,0,1,.32-.83,2.39,2.39,0,0,1,.92-.8,1,1,0,0,1,.77-.14.33.33,0,0,1,.23.34.84.84,0,0,1-.2.52.75.75,0,0,1-.36.28.12.12,0,0,1-.12,0,.14.14,0,0,1,0-.14.7.7,0,0,0,0-.19.31.31,0,0,0,0-.15.2.2,0,0,0-.09-.09.27.27,0,0,0-.24,0,1,1,0,0,0-.21.13.88.88,0,0,0-.15.15.63.63,0,0,0-.13.36.51.51,0,0,0,.06.27.87.87,0,0,0,.15.18l.19.16a1.31,1.31,0,0,1,.19.18.72.72,0,0,1,.21.49,1.1,1.1,0,0,1-.11.48,2.1,2.1,0,0,1-.28.43,2.44,2.44,0,0,1-.81.67,1,1,0,0,1-.68.13A.29.29,0,0,1,263.29,374.2Z"/><g class="cls-26"><path class="cls-9" d="M271,390v9.49l-27.78,13.6-.91.44-12.81-7.91v-9.33l12.06,7.45.61.38.64-.32,1.55-.76L271,390m1.3-2.08-28.51,14-1.55.76-14-8.67v12.39l14,8.67,1.55-.76,28.51-14V387.89Z"/></g><polygon class="cls-27" points="233.35 370.83 258.81 358.37 267.82 363.93 242.37 376.4 233.35 370.83"/><g class="cls-28"><line class="cls-29" x1="236.56" y1="374.42" x2="264.75" y2="360.41"/></g><path class="cls-5" d="M293,369.38a2.87,2.87,0,0,0,.24-.86c8-11.34,23.91-5.63,26-4.28a16.62,16.62,0,0,1,1.63,1.21,7.24,7.24,0,0,1,3.45-3.3c8-3.55,14.69,7.85,14.13,14.53-.2,2.36-.31,3.49-2.68,5.88-1.92,1.94-6.68,2.75-6.67,1,0,7.67-3.16,15.6-9.73,19.94-1.35.89-8.26,4.11-10.09,3-6.12-3.76-9.6-9.86-11.83-16.69S294.31,376.44,293,369.38Z"/><path class="cls-30" d="M304.13,394.89a5,5,0,0,0,4.23-3.63c.49-1.9.58-4.38-.74-6-1.49-1.81-4-.66-5.54.41a1.09,1.09,0,0,1-1.67-1.18,15.64,15.64,0,0,0,0-8.77,10.4,10.4,0,0,0-7.11-7.32,18.66,18.66,0,0,0-2,3.51s-1.88,5.85-3.92,8.82a6.66,6.66,0,0,1-1.19,1.3,5.17,5.17,0,0,0-1.41,6.46,6.64,6.64,0,0,0,1.07,1.32l.21,9.55a8.67,8.67,0,0,0,3.85,7.19,15.7,15.7,0,0,0,7.81,2.2c9.41.41,12.73-1.82,13.56-2A22.44,22.44,0,0,1,304.13,394.89Z"/><path class="cls-31" d="M331.65,468.42l-54.54,23.25V466.48c-.27-6.1-4.24-12.73-4.24-12.73l4.24-24.93,4.78-3.19c8.36-7.73,24.08-12.07,35.25-10.25,18.69,3.05,16,19.37,15.93,34.65C332.93,467.07,332.56,468.45,331.65,468.42Z"/><path class="cls-32" d="M254,444.73c-5.78-10.06-9-19.42-12.11-30.58.71-2.14,2.49-4.37,3-6.54.63-2.65,1.43-5.27,2.32-7.85.26-.76,1.29-2.87.89-3.68-.87-1.76-3.83,2.68-4.66,3.55-1,1-2.22,3-3.45,3.73A2.84,2.84,0,0,1,237,403c-3.29-2.48-3.6-6.08-3.7-9.9,0-.92.67-4.26-.66-4.53a1.43,1.43,0,0,0-1,.26c-1.5.93-1.61,2.85-1.89,4.45a30.48,30.48,0,0,0,1.86,16.26,28.1,28.1,0,0,1,2,9.87s3.53,32.23,8.57,40.89c0,0,3.54,4.24,8.13,3.54,13-2,33-12.46,38.18-21.41,4.08-7,1.86-25.62-12.81-13.36-6.94,5.8-22.37,15.75-24.75,18.32"/></g><circle id="SVGID-11" data-name="SVGID" class="cls-1" cx="269.08" cy="405.42" r="74"/></g><g id="Frame_3" data-name="Frame 3"><g class="cls-33"><rect class="cls-34" x="0.24" y="217.24" width="144.96" height="151.87"/><g class="cls-35"><rect class="cls-2" x="-0.26" y="254.79" width="20.55" height="20.55"/><rect class="cls-2" x="-0.26" y="278.34" width="20.55" height="20.55"/><rect class="cls-2" x="-0.26" y="231.23" width="20.55" height="20.55"/><rect class="cls-2" x="23.29" y="301.89" width="20.55" height="20.55"/><rect class="cls-2" x="-0.26" y="301.89" width="20.55" height="20.55"/><rect class="cls-2" x="23.29" y="254.79" width="20.55" height="20.55"/><rect class="cls-2" x="23.29" y="278.34" width="20.55" height="20.55"/><polygon class="cls-2" points="-3.26 228.23 -3.26 208.77 -0.26 208.77 -0.26 228.23 20.29 228.23 20.29 208.77 23.29 208.77 23.29 228.23 43.85 228.23 43.85 208.77 46.85 208.77 46.85 228.23 67.4 228.23 67.4 208.77 67.42 208.77 67.42 202.5 -27.29 202.5 -3.26 228.23"/><rect class="cls-2" x="46.85" y="231.23" width="20.55" height="20.55"/><rect class="cls-2" x="46.85" y="254.79" width="20.55" height="20.55"/><rect class="cls-2" x="46.85" y="301.89" width="20.55" height="20.55"/><rect class="cls-2" x="46.85" y="278.34" width="20.55" height="20.55"/><rect class="cls-2" x="23.29" y="231.23" width="20.55" height="20.55"/><path class="cls-9" d="M-30.29,199.5v1.87h-.37V322.45l.37,3v.12H70.42V199.5ZM20.29,322.45H-.26V301.89H20.29Zm0-23.55H-.26V278.34H20.29Zm0-23.55H-.26V254.79H20.29Zm0-23.55H-.26V231.23H20.29Zm23.55,70.66H23.29V301.89H43.85Zm0-23.55H23.29V278.34H43.85Zm0-23.55H23.29V254.79H43.85Zm0-23.55H23.29V231.23H43.85ZM67.4,322.45H46.85V301.89H67.4Zm0-23.55H46.85V278.34H67.4Zm0-23.55H46.85V254.79H67.4Zm0-23.55H46.85V231.23H67.4Zm0-43h0v19.46H46.85V208.77h-3v19.46"/></g><rect class="cls-36" x="-16.67" y="322.11" width="175" height="72.42"/><rect class="cls-37" x="84" y="232.78" width="95.67" height="104.39"/><rect class="cls-38" x="90.67" y="303.33" width="74" height="2" rx="1" ry="1"/><rect class="cls-38" x="84" y="235.67" width="69.67" height="4"/><rect class="cls-39" x="83.34" y="232.61" width="74" height="4.57"/><path class="cls-5" d="M103.9,285v-.3a13.34,13.34,0,0,1,1.55-5.79,12.16,12.16,0,0,1,3.33-4,6.43,6.43,0,0,1,3.88-1.52,2.8,2.8,0,0,1,2.27,1,3.22,3.22,0,0,1,.71,2.11,4.88,4.88,0,0,1-1.1,3,4.08,4.08,0,0,1-1.35,1.21,1.33,1.33,0,0,1-.63.19,1.19,1.19,0,0,1-.54-.12,1.65,1.65,0,0,1-.43-.31,1.12,1.12,0,0,1-.38-.72.52.52,0,0,1,.16-.44,6.83,6.83,0,0,0,2.29-2.49,2.22,2.22,0,0,0,.24-1q0-1-.94-1a4.41,4.41,0,0,0-3,1.61,12.37,12.37,0,0,0-2.46,3.73,11.33,11.33,0,0,0-1.1,4.23v.39q0,2.31,1,3a1.36,1.36,0,0,0,.84.26,3.33,3.33,0,0,0,.92-.12,4.92,4.92,0,0,0,.86-.34,11.14,11.14,0,0,0,1.78-1.24.33.33,0,0,1,.54.07,1.05,1.05,0,0,1,.18.62,1.41,1.41,0,0,1-.16.79,2.81,2.81,0,0,1-.54.5,4.86,4.86,0,0,1-.94.53,6.21,6.21,0,0,1-2.53.57,5.48,5.48,0,0,1-2-.3,3.48,3.48,0,0,1-1.28-.87A4.62,4.62,0,0,1,103.9,285Z"/><path class="cls-5" d="M115.8,288.59a2.84,2.84,0,0,1-.68-1,4.24,4.24,0,0,1-.26-1.49,6.83,6.83,0,0,1,.21-1.74,8.45,8.45,0,0,1,.63-1.7,8.59,8.59,0,0,1,1-1.54,7.39,7.39,0,0,1,1.26-1.25,5,5,0,0,1,3.11-1.15,2.82,2.82,0,0,1,2.86,1.86,5.3,5.3,0,0,1,.06,3.25,8.44,8.44,0,0,1-1.58,3.22,6.36,6.36,0,0,1-2.69,2.08,4.15,4.15,0,0,1-1.53.31,4.28,4.28,0,0,1-1.34-.19A2.67,2.67,0,0,1,115.8,288.59Zm2-5a9.92,9.92,0,0,0-.49,1.56,6.49,6.49,0,0,0-.17,1.51,2.53,2.53,0,0,0,.22,1.12.71.71,0,0,0,.68.41,1.6,1.6,0,0,0,.93-.32,4.49,4.49,0,0,0,.89-.86,8.16,8.16,0,0,0,.81-1.23,11.73,11.73,0,0,0,.67-1.46,8,8,0,0,0,.6-2.93q0-1.13-.46-1.44a.93.93,0,0,0-.52-.12,1.38,1.38,0,0,0-.76.3,4.59,4.59,0,0,0-.86.81,8.6,8.6,0,0,0-.83,1.2A11.4,11.4,0,0,0,117.75,283.62Z"/><path class="cls-5" d="M126.59,288.59a2.84,2.84,0,0,1-.68-1,4.24,4.24,0,0,1-.26-1.49,6.83,6.83,0,0,1,.21-1.74,8.45,8.45,0,0,1,.63-1.7,8.59,8.59,0,0,1,1-1.54,7.39,7.39,0,0,1,1.26-1.25,5,5,0,0,1,3.11-1.15,2.82,2.82,0,0,1,2.86,1.86,5.3,5.3,0,0,1,.06,3.25,8.44,8.44,0,0,1-1.58,3.22,6.36,6.36,0,0,1-2.69,2.08,4.15,4.15,0,0,1-1.53.31,4.28,4.28,0,0,1-1.34-.19A2.67,2.67,0,0,1,126.59,288.59Zm2-5a9.92,9.92,0,0,0-.49,1.56,6.49,6.49,0,0,0-.17,1.51,2.53,2.53,0,0,0,.22,1.12.71.71,0,0,0,.68.41,1.6,1.6,0,0,0,.93-.32,4.49,4.49,0,0,0,.89-.86,8.16,8.16,0,0,0,.81-1.23,11.73,11.73,0,0,0,.67-1.46,8,8,0,0,0,.6-2.93q0-1.13-.46-1.44a.93.93,0,0,0-.52-.12,1.38,1.38,0,0,0-.76.3,4.59,4.59,0,0,0-.86.81,8.6,8.6,0,0,0-.83,1.2A11.4,11.4,0,0,0,128.55,283.62Z"/><path class="cls-5" d="M143.22,289.38q-2.33,0-3.71-4.42-.54,1-.9,1.83l-.62,1.39a5.55,5.55,0,0,1-.5.89.65.65,0,0,1-.52.32,1.35,1.35,0,0,1-.52-.1A1.46,1.46,0,0,1,136,289a1,1,0,0,1-.36-.72,1.87,1.87,0,0,1,.22-.6l.41-.83a54,54,0,0,0,3.48-10,38.17,38.17,0,0,0,.83-4q.11-.86.84-.86a1.13,1.13,0,0,1,.72.23,1.16,1.16,0,0,1,.53.95,8.13,8.13,0,0,1-.14,1.14q-.12.64-.31,1.39t-.44,1.57q-.67,2.14-1,3.06l-1,2.66q-.18.47-.29.69a10.5,10.5,0,0,0,3.57-2.13,2,2,0,0,0,.72-1.34.52.52,0,0,0-.21-.46,2.19,2.19,0,0,1-.29-.22c-.05-.05-.06-.14,0-.28a.79.79,0,0,1,.38-.38,1.51,1.51,0,0,1,.77-.18,2.93,2.93,0,0,1,.75.08,1.51,1.51,0,0,1,.53.26,1.18,1.18,0,0,1,.5,1,2.64,2.64,0,0,1-.28,1.21,3.6,3.6,0,0,1-.86,1.06,12.41,12.41,0,0,1-3.71,1.91,5.79,5.79,0,0,0,1.17,2.4,2.16,2.16,0,0,0,1.49,1,1.41,1.41,0,0,0,.62-.12l.37-.18a.45.45,0,0,1,.22-.06c.17,0,.26.1.26.31a1.11,1.11,0,0,1-.09.47,2.38,2.38,0,0,1-.26.42,2.46,2.46,0,0,1-.44.44A2.42,2.42,0,0,1,143.22,289.38Z"/><path class="cls-5" d="M150.32,287.37q.27,0,.27.35a1.49,1.49,0,0,1-.42,1,2.06,2.06,0,0,1-1.65.72,1.63,1.63,0,0,1-1.63-1,1.87,1.87,0,0,1-.16-.82,3.94,3.94,0,0,1,.17-1.07q.17-.59.42-1.24t.55-1.32l.54-1.29a6.74,6.74,0,0,0,.59-1.91,1.26,1.26,0,0,0-.1-.61.86.86,0,0,0-.21-.23l-.21-.14a.28.28,0,0,1-.1-.25.52.52,0,0,1,.14-.34,1.25,1.25,0,0,1,.36-.29,2.32,2.32,0,0,1,1.08-.24q1.51,0,1.51.79a5.69,5.69,0,0,1-.48,2.11q-.48,1.18-.82,1.91l-.62,1.42a6.66,6.66,0,0,0-.68,2.25.4.4,0,0,0,.45.45,1.56,1.56,0,0,0,.67-.11A.85.85,0,0,1,150.32,287.37Zm2.1-11.1a1.86,1.86,0,0,1-.51.39,1.71,1.71,0,0,1-.6.19,1.1,1.1,0,0,1-.6-.1,1.41,1.41,0,0,1-.49-.38,1.59,1.59,0,0,1-.44-1,1.46,1.46,0,0,1,.17-.78,1.42,1.42,0,0,1,.43-.43,1.73,1.73,0,0,1,.93-.32,2.87,2.87,0,0,1,.68.06,1.36,1.36,0,0,1,.45.21,1,1,0,0,1,.5.82,2.07,2.07,0,0,1-.14.81A1.94,1.94,0,0,1,152.42,276.27Z"/><path class="cls-5" d="M153,285.7a6.69,6.69,0,0,1,.3-1.71,8.24,8.24,0,0,1,.69-1.58,9.24,9.24,0,0,1,1-1.45,8,8,0,0,1,1.26-1.19,4.91,4.91,0,0,1,3-1.1,2.28,2.28,0,0,1,2.34,1.45,2.9,2.9,0,0,1,.19,1.16,3.21,3.21,0,0,1-.26,1.24,3.61,3.61,0,0,1-.68,1,5,5,0,0,1-1,.83,7.15,7.15,0,0,1-1.31.63,9.68,9.68,0,0,1-3.12.53,1.92,1.92,0,0,0-.05.43,2.74,2.74,0,0,0,.06.64,1.86,1.86,0,0,0,.25.63,1.17,1.17,0,0,0,1.07.62,4.35,4.35,0,0,0,2.32-.7,3.22,3.22,0,0,0,.65-.49.69.69,0,0,1,.44-.25.39.39,0,0,1,.32.22.92.92,0,0,1,.14.5,1.51,1.51,0,0,1-.31.94,5.22,5.22,0,0,1-3.85,1.29,3.29,3.29,0,0,1-2.42-.9A3.58,3.58,0,0,1,153,285.7Zm6-5.66q-1.08,0-2.07,1.48a11.13,11.13,0,0,0-1.35,3,5,5,0,0,0,3-1.35,3.08,3.08,0,0,0,1.16-2.12Q159.69,280,159,280Z"/><path class="cls-5" d="M162.31,287.48a1.27,1.27,0,0,1,.14-.59,1.54,1.54,0,0,1,.34-.46,1.32,1.32,0,0,1,.9-.4.37.37,0,0,1,.41.42,1.58,1.58,0,0,0,.71,1.49,1,1,0,0,0,.53.15,1.58,1.58,0,0,0,.47-.06,1.08,1.08,0,0,0,.36-.19.89.89,0,0,0,.37-.71,1.57,1.57,0,0,0-.18-.75,6.41,6.41,0,0,0-.46-.72l-.58-.82a5.18,5.18,0,0,1-1.23-3,2.83,2.83,0,0,1,1-2.08,3.94,3.94,0,0,1,2.84-1.06,3.47,3.47,0,0,1,2.37.75,1.8,1.8,0,0,1,.7,1.38,1.56,1.56,0,0,1-.62,1.29,1.33,1.33,0,0,1-1.11.32.58.58,0,0,1-.38-.25.51.51,0,0,1-.05-.46,1.74,1.74,0,0,0,.08-.53,1.27,1.27,0,0,0-.1-.51,1.19,1.19,0,0,0-.28-.4,1.09,1.09,0,0,0-.75-.34,2.07,2.07,0,0,0-.65.09,1.4,1.4,0,0,0-.45.25,1.19,1.19,0,0,0-.4.91,2.15,2.15,0,0,0,.18.93,5.38,5.38,0,0,0,.46.78q.27.39.59.79a8,8,0,0,1,.58.84,3.57,3.57,0,0,1,.65,1.82,2.44,2.44,0,0,1-.33,1.31,3.21,3.21,0,0,1-.85.91,4.1,4.1,0,0,1-2.5.83,3.18,3.18,0,0,1-2.09-.64A1.6,1.6,0,0,1,162.31,287.48Z"/><path id="SVGID-12" data-name="SVGID" class="cls-3" d="M61,272.47c.16.45,0,1.1-.59,1.15,0,0-.08,1.62-.08,1.77a2,2,0,0,1-.15.87,1.69,1.69,0,0,1-.44.5,5.3,5.3,0,0,1-6.1.34,6.91,6.91,0,0,1-3.09-5.71c0-1.27-.17-3,.35-4,.86-1.63,2.82-1.29,4.69-1.29,1.66,0,4.37,1.27,4.74,3.05.15.72.08,1.71.24,2.43a3.47,3.47,0,0,0,.34.73Z"/><g class="cls-40"><rect class="cls-41" x="43.71" y="258.49" width="25.29" height="22.75"/><path class="cls-42" d="M55.38,270.67a1,1,0,0,1,.81.18c.17.12,1.9-1.83,2.42-2.81l.07-.14-4.07-2.43L47.21,271s1.82,4.49,2,4.66a6.21,6.21,0,0,0,1.3.33,5.7,5.7,0,0,0,3.58-.47h0a2.06,2.06,0,0,0,1.13-2.17h0a1.9,1.9,0,0,1-.53-.91A1.39,1.39,0,0,1,55.38,270.67Z"/></g><path class="cls-5" d="M64.08,270.21c0-.74-.75-.88-1.51-1s-2.38-.3-2.38-.3,0-.11,0-.17a4.82,4.82,0,0,0-9.63,0c0,1,0,1.5,0,1.5H64.08Z"/><path class="cls-5" d="M60,347.14c.38,0,1.28.77,1.66.94a7.59,7.59,0,0,0,2.52.64,3,3,0,0,1,2.13.66c2.1,2.1-2.2,1.68-5.3,1.68H55.58a1.1,1.1,0,0,1-1.08-1.12v-2.8Z"/><path class="cls-43" d="M50.67,304.78c-1.39.12,1,8.09,1.26,9a61.74,61.74,0,0,1,2.59,17.75c0,.81,0,15.65,0,15.65h5.65L62,325.76q.17-1.77.17-3.55V303.78Z"/><path class="cls-44" d="M84,330.67h95.7a0,0,0,0,1,0,0v7a0,0,0,0,1,0,0H84A1.67,1.67,0,0,1,82.33,336v-3.68A1.67,1.67,0,0,1,84,330.67Z"/><rect class="cls-38" x="84" y="326.67" width="69.67" height="4"/><path class="cls-45" d="M56.07,281.78c-3.24,0-5.86,3.21-5.86,7.17v16.75H61.93V288.94C61.93,285,59.31,281.78,56.07,281.78Z"/><rect class="cls-46" x="50.21" y="305.19" width="11.96" height="1"/><path class="cls-5" d="M149.83,336.11a20,20,0,0,0-40,0c0,.53,0,1.05.08,1.57h39.84C149.79,337.16,149.83,336.64,149.83,336.11Z"/><circle class="cls-47" cx="129.83" cy="336.11" r="16"/><rect class="cls-48" x="61.91" y="285.78" width="14.9" height="20.46"/><path class="cls-49" d="M129.83,346.11a10,10,0,1,1,10-10A10,10,0,0,1,129.83,346.11Z"/><rect class="cls-48" x="1.55" y="297.78" width="21.57" height="20.33"/><polyline class="cls-50" points="12.25 318.11 1.55 318.11 1.55 297.78 12.25 297.78"/><rect class="cls-51" x="11.23" y="297.78" width="2.21" height="12.44"/><rect class="cls-48" x="12.33" y="318.17" width="21.57" height="20.33"/><polyline class="cls-50" points="23.03 338.5 12.33 338.5 12.33 318.17 23.03 318.17"/><rect class="cls-51" x="22.01" y="318.17" width="2.21" height="12.44"/><rect class="cls-48" x="-9.24" y="318.17" width="21.57" height="20.33"/><polyline class="cls-50" points="1.47 338.5 -9.24 338.5 -9.24 318.17 1.47 318.17"/><rect class="cls-51" x="0.44" y="318.17" width="2.21" height="12.44"/><path class="cls-52" d="M77.92,296.37a.45.45,0,0,0,0-.42c0-.12-.15-.21-.2-.33a1.51,1.51,0,0,1-.06-.4c-.08-.64-.79-.38-1.21-.33-.27,0-.55,0-.82.06l-.33,0c.22-.26.73-.31,1-.36a1.08,1.08,0,0,0,.9-.5.33.33,0,0,0,0-.22.27.27,0,0,0-.21-.19.8.8,0,0,0-.3,0,9.89,9.89,0,0,0-1.93.45,3.86,3.86,0,0,0-.86.47l-.08.06s-.55.36-.94.57l-8.79-1.51,0,0-.77-.92-1.55-1.84-3.09-3.68-3.52,3.23,3.4,3.41,1.7,1.7.85.85.21.21s.18.19.27.26a2.91,2.91,0,0,0,.37.26,3,3,0,0,0,1.72.42h-.26l9.07.14a2.86,2.86,0,0,0,.69.13,7.76,7.76,0,0,1,.85.28,7.45,7.45,0,0,0,2.23.21h.36a1.29,1.29,0,0,0,.68-.11c.17-.11.15-.24.19-.42a3.46,3.46,0,0,1,.22-.46.63.63,0,0,0,.06-.32c0-.17-.15-.29-.08-.47A1.28,1.28,0,0,1,77.92,296.37Zm-14-2.67h0Z"/><circle class="cls-15" cx="129.83" cy="336.11" r="4.33"/></g><circle id="SVGID-13" data-name="SVGID" class="cls-1" cx="76" cy="295.11" r="74"/></g><g id="Frame_2" data-name="Frame 2"><g class="cls-53"><polygon class="cls-54" points="217.84 260.75 343.08 259.56 339.83 203.5 339.08 165.75 309.08 124 343.08 109.5 312.83 111.56 195.08 111.56 175.09 181.25 214.89 166.19 226.77 243.47 217.84 260.75"/><rect class="cls-55" x="234.74" y="240.28" width="7.74" height="35.61"/><rect class="cls-55" x="333.28" y="200.75" width="7.74" height="40.42"/><circle class="cls-2" cx="269.08" cy="185.56" r="74"/><rect class="cls-56" x="187.36" y="145.84" width="164.06" height="76.13" transform="translate(-51.11 123.3) rotate(-23.61)"/><rect class="cls-56" x="187.36" y="145.84" width="164.06" height="76.13" transform="translate(-51.11 123.3) rotate(-23.61)"/><g class="cls-57"><polygon class="cls-58" points="291.24 158.24 291.04 158.16 291.03 158.16 261.2 146.68 259.81 147.29 290.86 159.25 291.07 159.33 291.07 159.33 348.57 181.47 347.92 180.07 291.24 158.24"/><polygon class="cls-58" points="298.78 139.29 298.78 139.29 335.55 153.45 334.89 152.05 298.96 138.21 298.75 138.13 298.75 138.13 288.97 134.36 287.58 134.98 298.57 139.21 298.78 139.29"/><polygon class="cls-58" points="294.92 149.31 294.92 149.31 342.06 167.46 341.4 166.06 295.1 148.23 294.89 148.15 294.89 148.15 275.09 140.52 273.7 141.13 294.71 149.23 294.92 149.31"/><polygon class="cls-58" points="302.64 129.27 302.64 129.27 329.04 139.44 328.38 138.04 302.86 128.21 302.86 128.21 302.8 128.23 302.51 128.36 301.47 128.82 302.43 129.19 302.64 129.27"/><polygon class="cls-58" points="276.02 198.4 275.81 198.31 215.91 175.25 215.92 175.25 215.71 175.17 205.66 171.3 204.27 171.91 215.11 176.09 215.11 176.09 215.32 176.17 275.22 199.24 275.22 199.24 275.43 199.32 302.47 209.73 303.88 209.12 276.02 198.4 276.02 198.4"/><polygon class="cls-58" points="272.16 208.41 271.95 208.33 212.06 185.26 212.06 185.26 211.85 185.18 191.77 177.45 190.38 178.07 211.25 186.11 211.25 186.11 211.46 186.19 271.36 209.25 271.36 209.25 271.57 209.33 288.36 215.8 289.77 215.19 272.16 208.41 272.16 208.41"/><polygon class="cls-58" points="279.88 188.38 279.67 188.3 219.77 165.23 219.77 165.23 219.56 165.15 219.54 165.14 219.54 165.14 219.28 165.26 218.16 165.76 218.97 166.07 218.97 166.07 219.18 166.15 279.07 189.22 279.07 189.22 279.28 189.3 316.58 203.66 317.99 203.05 279.88 188.38 279.88 188.38"/><polygon class="cls-58" points="267.89 218.27 267.89 218.27 207.99 195.2 207.78 195.12 207.78 195.12 191.73 188.94 192.38 190.34 207.6 196.2 207.81 196.28 207.81 196.28 267.71 219.35 267.92 219.43 267.92 219.43 274.25 221.87 275.66 221.26 268.1 218.35 267.89 218.27"/><polygon class="cls-58" points="283.32 178.2 283.32 178.2 233.43 158.99 232.04 159.6 283.14 179.28 283.35 179.36 283.35 179.36 330.68 197.59 332.1 196.98 283.53 178.28 283.32 178.2"/><polygon class="cls-58" points="287.18 168.18 287.18 168.18 247.31 152.83 245.93 153.45 287 169.26 287.21 169.34 287.21 169.34 344.79 191.52 346.2 190.91 287.38 168.26 287.18 168.18"/><polygon class="cls-58" points="200.28 215.24 200.07 215.16 200.07 215.16 199.68 216.16 199.89 216.24 199.89 216.24 200.1 216.32 200.1 216.32 205.4 218.36 246.03 234.01 247.44 233.4 204.75 216.96 200.28 215.24"/><polygon class="cls-58" points="196.42 225.25 196.21 225.17 196.21 225.17 195.82 226.18 196.03 226.26 196.03 226.26 196.24 226.34 196.24 226.34 211.91 232.37 231.93 240.08 233.34 239.47 211.26 230.97 196.42 225.25"/><polygon class="cls-58" points="203.92 205.14 203.92 205.14 198.24 202.95 198.89 204.35 203.75 206.22 203.96 206.3 203.96 206.3 260.14 227.94 261.55 227.33 204.13 205.22 203.92 205.14"/><polygon class="cls-58" points="184.84 255.31 184.63 255.23 184.25 256.23 184.25 256.23 184.46 256.31 184.46 256.31 184.67 256.39 185.05 255.39 185.05 255.39 184.84 255.31 184.84 255.31"/></g><g class="cls-59"><path d="M226.54,186.16c2.28,5.21-1.62,12.36-7.81,15.07s-13.06.67-15.33-4.54.89-11.63,7.08-14.34S224.26,180.94,226.54,186.16Z"/><path d="M302.63,187c2.28,5.21-1.62,12.36-7.81,15.07s-13.06.67-15.33-4.54.89-11.63,7.08-14.34S300.35,181.8,302.63,187Z"/><path d="M258.29,172.28c2.28,5.21-1.62,12.36-7.81,15.07s-13.06.67-15.33-4.54.89-11.63,7.08-14.34S256,167.07,258.29,172.28Z"/><path d="M289.91,158.4c2.28,5.21-1.62,12.36-7.81,15.07s-13.06.67-15.33-4.54.89-11.63,7.08-14.34S287.63,153.19,289.91,158.4Z"/><path d="M322,144.4c2.28,5.21-1.62,12.36-7.81,15.07s-13.06.67-15.33-4.54.89-11.63,7.08-14.34S319.76,139.19,322,144.4Z"/><path d="M334.54,173c2.28,5.21-1.62,12.36-7.81,15.07s-13.06.67-15.33-4.54.89-11.63,7.08-14.34S332.26,167.82,334.54,173Z"/><path d="M270.89,200.89c2.28,5.21-1.62,12.36-7.81,15.07s-13.06.67-15.33-4.54.89-11.63,7.08-14.34S268.61,195.68,270.89,200.89Z"/><path d="M239.14,214.64c2.28,5.21-1.62,12.36-7.81,15.07s-13.06.67-15.33-4.54.89-11.63,7.08-14.34S236.86,209.43,239.14,214.64Z"/></g><path class="cls-18" d="M227.21,184c2.28,5.21-1.62,12.36-7.81,15.07s-13.06.67-15.33-4.54.89-11.63,7.08-14.34S224.93,178.78,227.21,184Z"/><path class="cls-18" d="M303.3,184.85c2.28,5.21-1.62,12.36-7.81,15.07s-13.06.67-15.33-4.54.89-11.63,7.08-14.34S301,179.63,303.3,184.85Z"/><path class="cls-18" d="M259,170.11c2.28,5.21-1.62,12.36-7.81,15.07s-13.06.67-15.33-4.54.89-11.63,7.08-14.34S256.68,164.9,259,170.11Z"/><path class="cls-18" d="M290.58,156.24c2.28,5.21-1.62,12.36-7.81,15.07s-13.06.67-15.33-4.54.89-11.63,7.08-14.34S288.3,151,290.58,156.24Z"/><path class="cls-18" d="M322.7,142.24c2.28,5.21-1.62,12.36-7.81,15.07s-13.06.67-15.33-4.54.89-11.63,7.08-14.34S320.43,137,322.7,142.24Z"/><path class="cls-18" d="M335.2,170.86c2.28,5.21-1.62,12.36-7.81,15.07s-13.06.67-15.33-4.54.89-11.63,7.08-14.34S332.93,165.65,335.2,170.86Z"/><path class="cls-18" d="M271.55,198.72c2.28,5.21-1.62,12.36-7.81,15.07s-13.06.67-15.33-4.54.89-11.63,7.08-14.34S269.27,193.51,271.55,198.72Z"/><path class="cls-18" d="M239.8,212.47c2.28,5.21-1.62,12.36-7.81,15.07s-13.06.67-15.33-4.54.89-11.63,7.08-14.34S237.52,207.26,239.8,212.47Z"/><path class="cls-5" d="M210,190.92a2,2,0,0,0-3.59,1.57,1.6,1.6,0,0,0,1,.88,2,2,0,0,0,.57.08,2.2,2.2,0,0,0,.88-.19,2.11,2.11,0,0,0,1.06-1,1.6,1.6,0,0,0,0-1.36Z"/><path class="cls-5" d="M218.78,181.36a1.65,1.65,0,0,0-1.24.18,1.26,1.26,0,0,0-.58.78,1.46,1.46,0,0,0,1.19,1.68,1.73,1.73,0,0,0,.41,0,1.4,1.4,0,0,0,1.41-1,1.26,1.26,0,0,0-.16-1A1.65,1.65,0,0,0,218.78,181.36Z"/><path class="cls-5" d="M222,193.08a2.07,2.07,0,0,0,1.62-.88,1.83,1.83,0,0,0-.16-2.55h0a2,2,0,0,0-2.33,3.16A1.44,1.44,0,0,0,222,193.08Z"/><path class="cls-5" d="M282.68,191.87a1.86,1.86,0,0,0-.47,1.19,1.42,1.42,0,0,0,.47,1.11,1.39,1.39,0,0,0,.92.34,1.82,1.82,0,0,0,1.35-.64,1.86,1.86,0,0,0,.47-1.19,1.41,1.41,0,0,0-.47-1.1A1.64,1.64,0,0,0,282.68,191.87Z"/><path class="cls-5" d="M297.15,190.82a1.66,1.66,0,0,0-1.14.12,1.27,1.27,0,0,0-.68.84,1.46,1.46,0,0,0,1.19,1.68,1.73,1.73,0,0,0,.41,0,1.4,1.4,0,0,0,1.41-1,1.27,1.27,0,0,0-.23-1.05A1.65,1.65,0,0,0,297.15,190.82Z"/><path class="cls-5" d="M293.75,181.9a1.36,1.36,0,1,0-1,2.5,1.85,1.85,0,0,0,.67.13,1.63,1.63,0,0,0,.5-.08,1.21,1.21,0,0,0,.71-1.8A1.75,1.75,0,0,0,293.75,181.9Z"/><path class="cls-5" d="M241.29,170.88a1.61,1.61,0,0,0-1.35.16,2.18,2.18,0,0,0-.9,2.59,1.6,1.6,0,0,0,1,1,1.53,1.53,0,0,0,.5.08,1.67,1.67,0,0,0,.85-.24,2.11,2.11,0,0,0,.91-1.14A1.85,1.85,0,0,0,241.29,170.88Z"/><path class="cls-5" d="M248.29,180.23a1.35,1.35,0,0,0-1.67.9,1.18,1.18,0,0,0,.22,1,1.53,1.53,0,0,0,.89.57,1.62,1.62,0,0,0,.36,0,1.3,1.3,0,0,0,1.31-.94A1.35,1.35,0,0,0,248.29,180.23Z"/><path class="cls-5" d="M251.31,171.22a1.29,1.29,0,0,0-1.12.17,1.56,1.56,0,0,0-.19,2.18,1.84,1.84,0,0,0,1,.72,1.48,1.48,0,0,0,.4.06,1.23,1.23,0,0,0,.72-.22,1.29,1.29,0,0,0,.52-.84,1.81,1.81,0,0,0-.33-1.34A1.84,1.84,0,0,0,251.31,171.22Z"/><path class="cls-5" d="M261.75,196.73a2.17,2.17,0,0,0-2.31,1.48,1.56,1.56,0,0,0,1.32,2.06l.27,0a2.15,2.15,0,0,0,1.15-.35,2.11,2.11,0,0,0,.89-1.15,1.56,1.56,0,0,0-1.32-2.06Z"/><path class="cls-5" d="M250.94,203.47a1.26,1.26,0,1,0-.56,2.44,1.62,1.62,0,0,0,.36,0A1.3,1.3,0,0,0,252,205a1.18,1.18,0,0,0-.22-1A1.53,1.53,0,0,0,250.94,203.47Z"/><path class="cls-5" d="M266.53,204.17a1.46,1.46,0,0,0-1.2.44,2.16,2.16,0,0,0-.29,2.62,1.46,1.46,0,0,0,1.07.7h.15a1.49,1.49,0,0,0,1-.45,2.16,2.16,0,0,0,.29-2.62A1.46,1.46,0,0,0,266.53,204.17Z"/><path class="cls-5" d="M276.58,163.82a1.29,1.29,0,0,0-1.09.08,1.67,1.67,0,0,0-.76.87,1.48,1.48,0,0,0,.71,2,1.21,1.21,0,0,0,.44.08,1.56,1.56,0,0,0,1.4-1A1.48,1.48,0,0,0,276.58,163.82Z"/><path class="cls-5" d="M287.4,160a1.51,1.51,0,0,0-1.31-.14,2.17,2.17,0,0,0-1.13.9,1.82,1.82,0,0,0,.32,2.54,1.43,1.43,0,0,0,.78.23,1.71,1.71,0,0,0,.53-.09,2.17,2.17,0,0,0,1.13-.9A1.82,1.82,0,0,0,287.4,160Z"/><path class="cls-5" d="M276,157.83a2.17,2.17,0,0,0,1.13-.91,1.47,1.47,0,0,0-.81-2.22,2.25,2.25,0,0,0-2.57.94,1.47,1.47,0,0,0,.81,2.22,2,2,0,0,0,.66.11A2.29,2.29,0,0,0,276,157.83Z"/><path class="cls-5" d="M304.57,147.87a2,2,0,0,0-1.37.51,1.85,1.85,0,0,0-.41,2.57,1.6,1.6,0,0,0,1.24.56h0a2.11,2.11,0,0,0,1.35-.51,1.85,1.85,0,0,0,.41-2.57A1.6,1.6,0,0,0,304.57,147.87Z"/><path class="cls-5" d="M316.27,151.34a1.57,1.57,0,0,0,1.35-.88,1.66,1.66,0,0,0,.16-1.13,1.27,1.27,0,0,0-.64-.87,1.56,1.56,0,0,0-1.44,2.74A1.21,1.21,0,0,0,316.27,151.34Z"/><path class="cls-5" d="M311.72,140.54a1.51,1.51,0,0,0-1.22.51,2.16,2.16,0,0,0-.56,1.33,1.83,1.83,0,0,0,1.5,2.07h.1a1.53,1.53,0,0,0,1.12-.51,2.25,2.25,0,0,0,.19-2.73A1.51,1.51,0,0,0,311.72,140.54Z"/><path class="cls-5" d="M236,215.36a1.6,1.6,0,0,0-1.36,0,2.17,2.17,0,0,0-1.22,2.46,1.6,1.6,0,0,0,.83,1.07,1.52,1.52,0,0,0,.68.16,1.73,1.73,0,0,0,.68-.14,2.11,2.11,0,0,0,1-1A1.85,1.85,0,0,0,236,215.36Z"/><path class="cls-5" d="M225.46,222.77a1.6,1.6,0,0,0-1.36,0,2.18,2.18,0,0,0-1.28,2.44,1.61,1.61,0,0,0,.81,1.09,1.53,1.53,0,0,0,.72.18,1.73,1.73,0,0,0,.65-.13,2.18,2.18,0,0,0,1.28-2.44A1.61,1.61,0,0,0,225.46,222.77Z"/><path class="cls-5" d="M224.39,213.12a1.83,1.83,0,0,0-1.5-2.07,1.49,1.49,0,0,0-1.22.51,2.16,2.16,0,0,0-.56,1.33,1.83,1.83,0,0,0,1.5,2.07h.1a1.53,1.53,0,0,0,1.12-.51A2.16,2.16,0,0,0,224.39,213.12Z"/><path class="cls-5" d="M331.73,174.55a1.85,1.85,0,0,0-2.6,0,2.1,2.1,0,0,0-.72,1.27,1.56,1.56,0,0,0,1.59,1.84h0a2.1,2.1,0,0,0,1.35-.53A1.85,1.85,0,0,0,331.73,174.55Z"/><path class="cls-5" d="M319.6,180.21a1.45,1.45,0,0,0-1.23,0,1.9,1.9,0,0,0-1,.89,1.67,1.67,0,0,0,.55,2.29,1.38,1.38,0,0,0,.64.16,1.8,1.8,0,0,0,1.55-1A1.67,1.67,0,0,0,319.6,180.21Z"/><path class="cls-5" d="M318.09,172.13a1.37,1.37,0,0,0-1.14-1.55,1.15,1.15,0,0,0-.93.38,1.61,1.61,0,0,0-.42,1,1.37,1.37,0,0,0,1.14,1.55h.08a1.16,1.16,0,0,0,.85-.39A1.61,1.61,0,0,0,318.09,172.13Z"/><path class="cls-19" d="M220.27,196.81c-6.19,2.71-13.06.67-15.33-4.54a9.14,9.14,0,0,1-.41-6,9.57,9.57,0,0,0-.47,8.29c2.28,5.21,9.14,7.24,15.33,4.54a14.58,14.58,0,0,0,8.06-9.07A14.86,14.86,0,0,1,220.27,196.81Z"/><path class="cls-19" d="M296.36,197.66c-6.19,2.71-13.06.67-15.33-4.54a9.14,9.14,0,0,1-.41-6,9.57,9.57,0,0,0-.47,8.29c2.28,5.21,9.14,7.24,15.33,4.54a14.58,14.58,0,0,0,8.06-9.07A14.86,14.86,0,0,1,296.36,197.66Z"/><path class="cls-19" d="M252,182.93c-6.19,2.71-13.06.67-15.33-4.54a9.14,9.14,0,0,1-.41-6,9.57,9.57,0,0,0-.47,8.29c2.28,5.21,9.14,7.25,15.33,4.54a14.58,14.58,0,0,0,8.06-9.07A14.86,14.86,0,0,1,252,182.93Z"/><path class="cls-19" d="M283.64,169.05c-6.19,2.71-13.06.67-15.33-4.54a9.14,9.14,0,0,1-.41-6,9.57,9.57,0,0,0-.47,8.29c2.28,5.21,9.14,7.25,15.33,4.54a14.58,14.58,0,0,0,8.06-9.07A14.86,14.86,0,0,1,283.64,169.05Z"/><path class="cls-19" d="M315.77,155.05c-6.19,2.71-13.06.67-15.33-4.54a9.14,9.14,0,0,1-.41-6,9.57,9.57,0,0,0-.47,8.29c2.28,5.21,9.14,7.25,15.33,4.54a14.58,14.58,0,0,0,8.06-9.07A14.86,14.86,0,0,1,315.77,155.05Z"/><path class="cls-19" d="M328.27,183.68c-6.19,2.71-13.06.67-15.33-4.54a9.14,9.14,0,0,1-.41-6,9.57,9.57,0,0,0-.47,8.29c2.28,5.21,9.14,7.25,15.33,4.54a14.58,14.58,0,0,0,8.06-9.07A14.86,14.86,0,0,1,328.27,183.68Z"/><path class="cls-19" d="M264.62,211.54c-6.19,2.71-13.06.67-15.33-4.54a9.14,9.14,0,0,1-.41-6,9.57,9.57,0,0,0-.47,8.29c2.28,5.21,9.14,7.24,15.33,4.54a14.58,14.58,0,0,0,8.06-9.07A14.86,14.86,0,0,1,264.62,211.54Z"/><path class="cls-19" d="M232.87,225.29c-6.19,2.71-13.06.67-15.33-4.54a9.14,9.14,0,0,1-.41-6,9.57,9.57,0,0,0-.47,8.29c2.28,5.21,9.14,7.24,15.33,4.54a14.58,14.58,0,0,0,8.06-9.07A14.86,14.86,0,0,1,232.87,225.29Z"/><g class="cls-60"><path class="cls-61" d="M209.95,181.68c6.82-3,15.18-1.54,17.68,4.2a9.77,9.77,0,0,1,.29,6.54,10.51,10.51,0,0,0,.44-8.56c-2.51-5.74-10.87-7.18-17.68-4.2a14.25,14.25,0,0,0-8.25,9.16A14.71,14.71,0,0,1,209.95,181.68Z"/></g><path class="cls-61" d="M242.21,168.12c6.19-2.71,13.78-1.4,16.06,3.81a8.88,8.88,0,0,1,.27,5.94,9.55,9.55,0,0,0,.4-7.78c-2.28-5.21-9.87-6.52-16.06-3.81a12.94,12.94,0,0,0-7.5,8.32A13.36,13.36,0,0,1,242.21,168.12Z"/><path class="cls-61" d="M273.9,154.24c6.19-2.71,13.78-1.4,16.06,3.81a8.88,8.88,0,0,1,.27,5.94,9.55,9.55,0,0,0,.4-7.78c-2.28-5.21-9.87-6.52-16.06-3.81a12.94,12.94,0,0,0-7.5,8.32A13.36,13.36,0,0,1,273.9,154.24Z"/><path class="cls-61" d="M306,140.26c6.19-2.71,13.78-1.4,16.06,3.81a8.88,8.88,0,0,1,.27,5.94,9.55,9.55,0,0,0,.4-7.78c-2.28-5.21-9.87-6.52-16.06-3.81a12.94,12.94,0,0,0-7.5,8.32A13.36,13.36,0,0,1,306,140.26Z"/><path class="cls-61" d="M318.47,168.88c6.19-2.71,13.78-1.4,16.06,3.81a8.88,8.88,0,0,1,.27,5.94,9.55,9.55,0,0,0,.4-7.78c-2.28-5.21-9.87-6.52-16.06-3.81a12.94,12.94,0,0,0-7.5,8.32A13.36,13.36,0,0,1,318.47,168.88Z"/><path class="cls-61" d="M286.6,182.82c6.19-2.71,13.78-1.4,16.06,3.81a8.88,8.88,0,0,1,.27,5.94,9.55,9.55,0,0,0,.4-7.78c-2.28-5.21-9.87-6.52-16.06-3.81a12.94,12.94,0,0,0-7.5,8.32A13.36,13.36,0,0,1,286.6,182.82Z"/><path class="cls-61" d="M254.85,196.7c6.19-2.71,13.78-1.4,16.06,3.81a8.88,8.88,0,0,1,.27,5.94,9.55,9.55,0,0,0,.4-7.78c-2.28-5.21-9.87-6.52-16.06-3.81a12.94,12.94,0,0,0-7.5,8.32A13.36,13.36,0,0,1,254.85,196.7Z"/><path class="cls-61" d="M223.1,210.45c6.19-2.71,13.78-1.4,16.06,3.81a8.88,8.88,0,0,1,.27,5.94,9.55,9.55,0,0,0,.4-7.78c-2.28-5.21-9.87-6.52-16.06-3.81a12.94,12.94,0,0,0-7.5,8.32A13.36,13.36,0,0,1,223.1,210.45Z"/><polygon class="cls-47" points="210.96 259.35 219.17 247.75 357.68 185.39 361.29 193.63 210.96 259.35"/><polygon class="cls-2" points="204.75 216.96 201.94 210.91 200.28 215.24 204.75 216.96"/><polygon class="cls-2" points="200.1 216.32 199.89 216.24 196.42 225.25 211.26 230.97 205.4 218.36 200.1 216.32 200.1 216.32"/><polygon class="cls-2" points="201.94 210.91 203.75 206.22 198.89 204.35 201.94 210.91"/><polygon class="cls-2" points="347.92 180.07 351.14 181.31 351.14 181.31 351.35 181.39 354.82 172.38 342.06 167.46 347.92 180.07"/><polygon class="cls-2" points="279.07 189.22 219.18 166.15 215.71 175.17 215.92 175.25 215.91 175.25 275.81 198.31 279.28 189.3 279.07 189.22 279.07 189.22"/><polygon class="cls-2" points="192.38 190.34 195.31 196.65 205.87 200.71 207.6 196.2 192.38 190.34"/><polygon class="cls-2" points="287.18 168.18 287.38 168.26 289.12 163.75 253.56 150.06 247.31 152.83 287.18 168.18 287.18 168.18"/><polygon class="cls-2" points="219.77 165.23 219.77 165.23 279.67 188.3 283.14 179.28 232.04 159.6 219.57 165.13 219.56 165.15 219.77 165.23"/><polygon class="cls-2" points="207.81 196.28 207.6 196.2 205.87 200.71 265.97 223.86 267.71 219.35 207.81 196.28 207.81 196.28"/><polygon class="cls-2" points="275.22 199.24 215.32 176.17 211.85 185.18 212.06 185.26 212.06 185.26 271.95 208.33 275.43 199.32 275.22 199.24 275.22 199.24"/><polygon class="cls-2" points="215.32 176.17 215.11 176.09 215.11 176.09 204.27 171.91 191.77 177.45 211.85 185.18 215.32 176.17"/><polygon class="cls-2" points="187.31 179.43 177.89 183.61 191.73 188.94 187.31 179.43"/><polygon class="cls-2" points="207.78 195.12 207.78 195.12 207.99 195.2 211.46 186.19 211.25 186.11 211.25 186.11 190.38 178.07 187.31 179.43 191.73 188.94 207.78 195.12"/><polygon class="cls-2" points="198.24 202.95 203.92 205.14 203.92 205.14 204.13 205.22 205.87 200.71 195.31 196.65 198.24 202.95"/><polygon class="cls-2" points="192.38 190.34 176.5 184.22 170.25 186.99 195.31 196.65 192.38 190.34"/><polygon class="cls-2" points="219.57 165.13 219.54 165.14 219.56 165.15 219.57 165.13"/><polygon class="cls-2" points="219.18 166.15 218.97 166.07 218.97 166.07 218.16 165.76 205.66 171.3 215.71 175.17 219.18 166.15"/><polygon class="cls-2" points="283.32 178.2 283.53 178.28 287 169.26 245.93 153.45 233.43 158.99 283.32 178.2 283.32 178.2"/><polygon class="cls-2" points="289.12 163.75 287.38 168.26 346.2 190.91 347.97 190.15 349.23 186.9 289.12 163.75"/><polygon class="cls-2" points="271.36 209.25 211.46 186.19 207.99 195.2 267.89 218.27 267.89 218.27 268.1 218.35 271.57 209.33 271.36 209.25 271.36 209.25"/><polygon class="cls-2" points="287.21 169.34 287 169.26 283.53 178.28 332.1 196.98 344.79 191.52 287.21 169.34 287.21 169.34"/><polygon class="cls-2" points="283.35 179.36 283.14 179.28 279.67 188.3 279.88 188.38 279.88 188.38 317.99 203.05 330.68 197.59 283.35 179.36 283.35 179.36"/><polygon class="cls-2" points="290.86 159.25 259.81 147.29 253.56 150.06 289.12 163.75 290.86 159.25"/><polygon class="cls-2" points="275.81 198.31 276.02 198.4 276.02 198.4 303.88 209.12 316.58 203.66 279.28 189.3 275.81 198.31"/><polygon class="cls-2" points="291.04 158.16 291.24 158.24 294.71 149.23 273.7 141.13 261.2 146.68 291.03 158.16 291.04 158.16"/><polygon class="cls-2" points="182.72 260.82 183.25 261.02 189.6 258.29 184.46 256.31 182.72 260.82"/><polygon class="cls-2" points="294.89 148.15 295.1 148.23 298.57 139.21 287.58 134.98 275.09 140.52 294.89 148.15 294.89 148.15"/><polygon class="cls-2" points="211.26 230.97 233.34 239.47 246.03 234.01 205.4 218.36 211.26 230.97"/><polygon class="cls-2" points="320.24 120.5 316.75 122.05 321.88 124.03 320.24 120.5"/><polygon class="cls-2" points="203.96 206.3 203.75 206.22 201.94 210.91 204.75 216.96 247.44 233.4 260.14 227.94 203.96 206.3 203.96 206.3"/><polygon class="cls-2" points="335.55 153.45 298.78 139.29 298.78 139.29 298.57 139.21 295.1 148.23 341.4 166.06 335.55 153.45"/><polygon class="cls-2" points="217.77 244.98 219.23 245.54 231.93 240.08 211.91 232.37 217.77 244.98"/><polygon class="cls-2" points="291.07 159.33 291.07 159.33 290.86 159.25 289.12 163.75 349.23 186.9 350.07 184.71 348.57 181.47 291.07 159.33"/><polygon class="cls-2" points="342.06 167.46 294.92 149.31 294.92 149.31 294.71 149.23 291.24 158.24 347.92 180.07 342.06 167.46"/><polygon class="cls-2" points="322.53 125.43 315.36 122.67 302.86 128.21 328.38 138.04 322.53 125.43"/><polygon class="cls-2" points="265.25 225.74 267.9 224.6 265.97 223.86 265.25 225.74"/><polygon class="cls-2" points="268.1 218.35 275.66 221.26 288.36 215.8 271.57 209.33 268.1 218.35"/><polygon class="cls-2" points="267.92 219.43 267.71 219.35 265.97 223.86 267.9 224.6 274.25 221.87 267.92 219.43 267.92 219.43"/><polygon class="cls-2" points="271.95 208.33 272.16 208.41 272.16 208.41 289.77 215.19 302.47 209.73 275.43 199.32 271.95 208.33"/><polygon class="cls-2" points="329.04 139.44 302.64 129.27 302.64 129.27 302.43 129.19 298.96 138.21 334.89 152.05 329.04 139.44"/><polygon class="cls-2" points="205.87 200.71 204.13 205.22 261.55 227.33 265.25 225.74 265.97 223.86 205.87 200.71"/><polygon class="cls-5" points="306.04 218.64 310 207.08 302.27 210.46 298.31 222.02 306.04 218.64"/><polygon class="cls-5" points="315.64 214.44 319.6 202.89 311.86 206.27 307.91 217.82 315.64 214.44"/><polygon class="cls-5" points="325.24 210.25 329.19 198.69 321.46 202.07 317.5 213.63 325.24 210.25"/><polygon class="cls-5" points="296.45 222.83 300.4 211.28 292.67 214.66 288.71 226.21 296.45 222.83"/><polygon class="cls-5" points="233.22 240.65 207.02 252.1 210.63 260.35 229.27 252.2 233.22 240.65"/><polygon class="cls-5" points="238.87 248.01 242.82 236.45 235.09 239.83 231.13 251.39 238.87 248.01"/><polygon class="cls-5" points="327.1 209.43 334.83 206.05 338.79 194.5 330.71 198.03 330.97 198.12 327.1 209.43"/><polygon class="cls-5" points="248.46 243.81 252.42 232.26 244.68 235.64 240.73 247.19 248.46 243.81"/><polygon class="cls-5" points="267.66 235.42 271.61 223.87 263.88 227.25 259.92 238.8 267.66 235.42"/><polygon class="cls-5" points="277.25 231.22 281.21 219.67 273.48 223.05 269.52 234.6 277.25 231.22"/><polygon class="cls-5" points="258.06 239.62 262.01 228.06 254.28 231.44 250.33 243 258.06 239.62"/><polygon class="cls-5" points="286.85 227.03 290.8 215.47 283.07 218.85 279.12 230.41 286.85 227.03"/><polygon class="cls-5" points="360.95 194.63 357.35 186.39 340.65 193.68 336.7 205.24 360.95 194.63"/><polygon class="cls-62" points="231.13 251.39 235.09 239.83 233.22 240.65 229.27 252.2 231.13 251.39"/><polygon class="cls-62" points="240.73 247.19 244.68 235.64 242.82 236.45 238.87 248.01 240.73 247.19"/><polygon class="cls-62" points="250.33 243 254.28 231.44 252.42 232.26 248.46 243.81 250.33 243"/><polygon class="cls-62" points="259.92 238.8 263.88 227.25 262.01 228.06 258.06 239.62 259.92 238.8"/><polygon class="cls-62" points="269.52 234.6 273.48 223.05 271.61 223.87 267.66 235.42 269.52 234.6"/><polygon class="cls-62" points="279.12 230.41 283.07 218.85 281.21 219.67 277.25 231.22 279.12 230.41"/><polygon class="cls-62" points="288.71 226.21 292.67 214.66 290.8 215.47 286.85 227.03 288.71 226.21"/><polygon class="cls-62" points="298.31 222.02 302.27 210.46 300.4 211.28 296.45 222.83 298.31 222.02"/><polygon class="cls-62" points="307.91 217.82 311.86 206.27 310 207.08 306.04 218.64 307.91 217.82"/><polygon class="cls-62" points="317.5 213.63 321.46 202.07 319.6 202.89 315.64 214.44 317.5 213.63"/><polygon class="cls-62" points="327.1 209.43 330.97 198.12 330.71 198.03 329.19 198.69 325.24 210.25 327.1 209.43"/><polygon class="cls-62" points="336.7 205.24 340.65 193.68 338.79 194.5 334.83 206.05 336.7 205.24"/><path class="cls-9" d="M207,253.6a1.5,1.5,0,0,1-.6-2.87L356.75,185a1.5,1.5,0,1,1,1.2,2.75L207.62,253.48A1.49,1.49,0,0,1,207,253.6Z"/><path class="cls-9" d="M177.52,184.6a1.5,1.5,0,0,1-.6-2.87L327.25,116a1.5,1.5,0,1,1,1.2,2.75L178.12,184.48A1.49,1.49,0,0,1,177.52,184.6Z"/></g><circle id="SVGID-14" data-name="SVGID" class="cls-1" cx="269.08" cy="185.56" r="74"/></g><g id="Frame_1" data-name="Frame 1"><g class="cls-63"><line class="cls-64" x1="73.33" y1="76" x2="87.33" y2="76"/><rect class="cls-65" x="2" y="2" width="148" height="148"/><rect class="cls-66" x="-2.71" y="91.46" width="168" height="168"/><path class="cls-9" d="M76.37,49.42c-1.3-1.3-3.07-2.91-3.64-4.7a3.18,3.18,0,0,1,0-1.91,1.9,1.9,0,0,1,.31-.55,2.56,2.56,0,0,0,.46-.74,7.25,7.25,0,0,0,0-1.87c0-1-.75-2.23-1.77-2.23H28.22c-1,0-1.77,1.21-1.77,2.23a7.25,7.25,0,0,0,0,1.87,2.56,2.56,0,0,0,.46.74,1.9,1.9,0,0,1,.31.55,3.18,3.18,0,0,1,0,1.91c-.58,1.79-2.34,3.4-3.64,4.7A2,2,0,0,0,23,50.83v60a2,2,0,0,0,.4,1.2l3.5,4.67a2,2,0,0,0,1.6.8h43a2,2,0,0,0,1.6-.8l3.5-4.67a2,2,0,0,0,.4-1.2v-60A2,2,0,0,0,76.37,49.42Z"/><path class="cls-67" d="M121.06,48.22a15.66,15.66,0,0,1-.82-1.64,17.64,17.64,0,0,1-1.32-6.06l-.42-7h-17l-.42,7a17.64,17.64,0,0,1-1.32,6.06,15.66,15.66,0,0,1-.82,1.64A46.47,46.47,0,0,0,92.5,71.41V110.5a6,6,0,0,0,6,6h23a6,6,0,0,0,6-6V71.41A46.47,46.47,0,0,0,121.06,48.22Z"/><polygon class="cls-68" points="101.26 37.56 118.74 37.56 118.65 36 101.35 36 101.26 37.56"/><path class="cls-69" d="M76.37,49.42c-1.3-1.3-3.07-2.91-3.64-4.7a3.18,3.18,0,0,1,0-1.91,1.9,1.9,0,0,1,.31-.55,2.56,2.56,0,0,0,.46-.74,7.25,7.25,0,0,0,0-1.87c0-1-.75-2.23-1.77-2.23H28.22c-1,0-1.77,1.21-1.77,2.23a7.25,7.25,0,0,0,0,1.87,2.56,2.56,0,0,0,.46.74,1.9,1.9,0,0,1,.31.55,3.18,3.18,0,0,1,0,1.91c-.58,1.79-2.34,3.4-3.64,4.7A2,2,0,0,0,23,50.83v60a2,2,0,0,0,.4,1.2l3.5,4.67a2,2,0,0,0,1.6.8h43a2,2,0,0,0,1.6-.8l3.5-4.67a2,2,0,0,0,.4-1.2v-60A2,2,0,0,0,76.37,49.42Z"/><path class="cls-9" d="M125.5,71.33c0-.11,0-.22,0-.33q0-1-.07-1.94c0-.35,0-.69-.08-1s-.09-.93-.15-1.39-.1-.85-.17-1.28q-.14-.94-.33-1.88c-.06-.31-.13-.63-.2-.94q-.2-.92-.45-1.84c0-.15-.08-.3-.12-.45-.39-1.39-.84-2.78-1.36-4.15h-.06a46.68,46.68,0,0,0-3-6.32,19.18,19.18,0,0,1-1-2,20.88,20.88,0,0,1-1.58-7.18l-.09-1.54a.74.74,0,0,0-.79-.7.75.75,0,0,0-.7.79l.09,1.53a22.37,22.37,0,0,0,1.7,7.69,20.65,20.65,0,0,0,1.07,2.14,45.36,45.36,0,0,1,2.72,5.58H97.43A43.07,43.07,0,0,0,94.5,71.41v37a4,4,0,0,0,4,4h23a4,4,0,0,0,4-4v-37s0,0,0-.07Z"/><g class="cls-70"><rect class="cls-9" x="21.35" y="61.23" width="55.65" height="40.54"/><rect class="cls-71" x="21.35" y="61" width="55.65" height="40.44"/><rect class="cls-72" x="25.83" y="41.75" width="48" height="3.25"/><rect class="cls-72" x="25.83" y="34.88" width="48" height="3.25"/><rect class="cls-73" x="20.5" y="61" width="59" height="3"/><rect class="cls-73" x="20.5" y="98.5" width="59" height="3"/><rect class="cls-72" x="26.06" y="115.64" width="49.24" height="1.86"/><polygon class="cls-72" points="72.73 44.71 72.73 116.7 77.88 110.38 77.88 49.88 72.73 44.71"/><polygon class="cls-72" points="27.27 44.71 27.27 116.7 22.13 110.38 22.13 49.88 27.27 44.71"/></g><path class="cls-9" d="M70.75,88.76A6.91,6.91,0,0,1,68.89,91a10.85,10.85,0,0,1-2.44,1.51,15.25,15.25,0,0,1-5.56,1.18,23.33,23.33,0,0,1-5.62-.51,49.14,49.14,0,0,1-5.37-1.54,32,32,0,0,0-10.54-2.09,14.1,14.1,0,0,0-5.2.89A8.57,8.57,0,0,0,30,93.48h0a.3.3,0,0,1-.53-.3A6.89,6.89,0,0,1,31.34,91a11.38,11.38,0,0,1,2.44-1.5,15.15,15.15,0,0,1,5.56-1.18,31.62,31.62,0,0,1,11,2,48,48,0,0,0,5.2,1.56,25.66,25.66,0,0,0,5.32.59,14.33,14.33,0,0,0,5.2-.89,8.63,8.63,0,0,0,4.15-3.08h0a.3.3,0,0,1,.53.3Z"/><circle class="cls-74" cx="110" cy="83.75" r="14.25"/><path class="cls-9" d="M103.94,82.85q-.31,0-1.14.9-.62.7-.9,1.06l-.48.61q-.31.59-.49,1l-.29.62a1.55,1.55,0,0,1-.2.33.29.29,0,0,1-.23.09.75.75,0,0,1-.27-.05.81.81,0,0,1-.23-.13.49.49,0,0,1-.2-.38,1,1,0,0,1,.12-.32l.2-.44q.1-.19.23-.49l.3-.74a7.71,7.71,0,0,0,.63-2,.42.42,0,0,0-.16-.37l-.11-.08a.15.15,0,0,1-.05-.13.28.28,0,0,1,.07-.18.67.67,0,0,1,.19-.15,1.06,1.06,0,0,1,.49-.12,1.11,1.11,0,0,1,.38.05A.77.77,0,0,1,102,82a.54.54,0,0,1,.2.39,1.63,1.63,0,0,1-.05.41,4,4,0,0,1-.13.42q-.08.21-.17.41l-.27.57c0,.07,0,.1,0,.08q1-1.27,1.18-1.5a5.07,5.07,0,0,1,.64-.66,1.36,1.36,0,0,1,.8-.32.8.8,0,0,1,.6.24.87.87,0,0,1,.23.62,2.31,2.31,0,0,1-.17.79q-.17.46-.23.64l.79-1,.44-.53a2.38,2.38,0,0,1,.7-.59,1.24,1.24,0,0,1,.49-.14,1.06,1.06,0,0,1,.38.07.87.87,0,0,1,.31.2.92.92,0,0,1,.27.7,2.13,2.13,0,0,1-.19.86q-.19.44-.34.72l-.28.57a3.49,3.49,0,0,0-.39,1.27q0,.29.24.29a.87.87,0,0,0,.41-.1.76.76,0,0,1,.24-.1.1.1,0,0,1,.11.11.94.94,0,0,1-.49.8,1.1,1.1,0,0,1-.6.22,1.23,1.23,0,0,1-.44-.06.83.83,0,0,1-.3-.2,1.08,1.08,0,0,1-.3-.78,3,3,0,0,1,.12-.86,6.75,6.75,0,0,1,.28-.76q.16-.37.32-.68l.25-.49a1.54,1.54,0,0,0,.17-.55q0-.21-.22-.21t-1,1q-.57.75-.79,1.07l-.37.54q-.31.59-.48,1l-.27.62a1.58,1.58,0,0,1-.18.33.25.25,0,0,1-.21.09.8.8,0,0,1-.26,0,.76.76,0,0,1-.22-.11.43.43,0,0,1-.21-.33,1.45,1.45,0,0,1,.12-.48q.11-.3.29-.68l.75-1.59a4,4,0,0,0,.4-1.12Q104.16,82.84,103.94,82.85Zm.53,1.51h0Z"/><path class="cls-9" d="M110.65,86.38q.14,0,.14.18a.78.78,0,0,1-.22.5,1.08,1.08,0,0,1-.86.38.85.85,0,0,1-.85-.5,1,1,0,0,1-.09-.43,2,2,0,0,1,.09-.56c.06-.21.13-.42.22-.65s.18-.46.29-.69l.28-.68a3.53,3.53,0,0,0,.31-1,.66.66,0,0,0-.05-.32.45.45,0,0,0-.11-.12l-.11-.08a.15.15,0,0,1-.05-.13.28.28,0,0,1,.07-.18.67.67,0,0,1,.19-.15,1.22,1.22,0,0,1,.56-.12q.79,0,.79.41a3,3,0,0,1-.25,1.1q-.25.62-.43,1l-.32.74a3.49,3.49,0,0,0-.35,1.18.21.21,0,0,0,.24.24.8.8,0,0,0,.35-.06A.45.45,0,0,1,110.65,86.38Zm1.1-5.81a1,1,0,0,1-.27.2.91.91,0,0,1-.32.1.57.57,0,0,1-.31-.05.74.74,0,0,1-.26-.2.83.83,0,0,1-.23-.54.76.76,0,0,1,.09-.41.72.72,0,0,1,.22-.22.91.91,0,0,1,.49-.17,1.51,1.51,0,0,1,.35,0,.71.71,0,0,1,.23.11.51.51,0,0,1,.26.43,1.07,1.07,0,0,1-.07.42A1,1,0,0,1,111.75,80.57Z"/><path class="cls-9" d="M112.26,87.17a1,1,0,0,1-.22-.36,1.4,1.4,0,0,1-.08-.5,3.13,3.13,0,0,1,.13-.77q.13-.48.34-1.1l.45-1.34A20.67,20.67,0,0,0,114,78.78q0-.45.44-.45a.67.67,0,0,1,.41.12.63.63,0,0,1,.3.53,4.09,4.09,0,0,1-.1.71q-.09.42-.24.91t-.33,1l-.74,2.18a10.16,10.16,0,0,0-.64,2.4q0,.29.24.29a.87.87,0,0,0,.41-.1.76.76,0,0,1,.24-.1.1.1,0,0,1,.11.11.94.94,0,0,1-.49.8,1.1,1.1,0,0,1-.6.22,1.23,1.23,0,0,1-.44-.06A.83.83,0,0,1,112.26,87.17Z"/><path class="cls-9" d="M118.63,87.44q-1.22,0-1.94-2.31-.28.53-.47,1l-.32.73a2.85,2.85,0,0,1-.26.47.34.34,0,0,1-.27.17.72.72,0,0,1-.27-.05.76.76,0,0,1-.21-.13.5.5,0,0,1-.19-.38,1,1,0,0,1,.11-.32l.21-.44a28.35,28.35,0,0,0,1.82-5.24,19.92,19.92,0,0,0,.44-2.11q.06-.45.44-.45a.59.59,0,0,1,.38.12.61.61,0,0,1,.28.5,4.32,4.32,0,0,1-.07.6q-.06.33-.16.73t-.23.82q-.35,1.12-.52,1.6l-.5,1.39q-.1.25-.15.36a5.5,5.5,0,0,0,1.87-1.12,1.05,1.05,0,0,0,.38-.7.27.27,0,0,0-.11-.24l-.15-.12s0-.08,0-.14a.41.41,0,0,1,.2-.2.79.79,0,0,1,.4-.1,1.53,1.53,0,0,1,.4,0A.78.78,0,0,1,120,82a.62.62,0,0,1,.26.53,1.38,1.38,0,0,1-.15.63,1.89,1.89,0,0,1-.45.56,6.5,6.5,0,0,1-1.94,1A3,3,0,0,0,118.3,86a1.13,1.13,0,0,0,.78.52.74.74,0,0,0,.32-.06l.19-.1a.24.24,0,0,1,.11,0q.13,0,.13.16a.57.57,0,0,1,0,.24,1.26,1.26,0,0,1-.14.22,1.34,1.34,0,0,1-.23.23A1.27,1.27,0,0,1,118.63,87.44Z"/><path class="cls-27" d="M33,81.25l-.07.56A1.25,1.25,0,0,0,33.55,83a1,1,0,0,0,.49.11,1.28,1.28,0,0,0,.51-.1,1.12,1.12,0,0,0,.68-1,1.73,1.73,0,0,0-.18-.78,4.62,4.62,0,0,0-.44-.7L34,79.81a5.14,5.14,0,0,1-1-1.55A4,4,0,0,1,32.84,77,4.18,4.18,0,0,1,33,75.86a4.64,4.64,0,0,1,.4-1A4.45,4.45,0,0,1,34,74a4.07,4.07,0,0,1,.8-.68A3.37,3.37,0,0,1,38,73a2.37,2.37,0,0,1,.81.63,2.7,2.7,0,0,1,.57,1.74,3.24,3.24,0,0,1-.53,1.78,2.21,2.21,0,0,1-1.1,1,.82.82,0,0,1-.36.07,1,1,0,0,1-.39-.07.89.89,0,0,1-.27-.19.78.78,0,0,1-.26-.56.28.28,0,0,1,.12-.27,2.87,2.87,0,0,0,1-.87A2.26,2.26,0,0,0,38,74.93a1.14,1.14,0,0,0-.3-.92,1.19,1.19,0,0,0-.85-.3A1.92,1.92,0,0,0,36,74a2.39,2.39,0,0,0-.73.64,3.27,3.27,0,0,0-.66,2,3.16,3.16,0,0,0,.54,1.66q.23.37.49.74t.5.74a3.16,3.16,0,0,1,.53,1.59,2.54,2.54,0,0,1-.25,1.19,2.84,2.84,0,0,1-.67.84,3.05,3.05,0,0,1-2.05.78A2.14,2.14,0,0,1,32,83.53a1.65,1.65,0,0,1-.47-1.13,1.69,1.69,0,0,1,.37-1.11,1.13,1.13,0,0,1,.55-.41Q33,80.72,33,81.25Z"/><path class="cls-27" d="M45.65,82.66a.15.15,0,0,1,.17.17,1.27,1.27,0,0,1-.63,1.07,1.78,1.78,0,0,1-1,.28,1.05,1.05,0,0,1-.72-.22A1.24,1.24,0,0,1,43,83a6.7,6.7,0,0,1,.61-2.22q-1.13,1.52-1.58,2a7.91,7.91,0,0,1-.79.78,2.19,2.19,0,0,1-1.33.6,1.17,1.17,0,0,1-1.21-.78,1.61,1.61,0,0,1-.09-.55,2.62,2.62,0,0,1,.11-.7,7.31,7.31,0,0,1,.27-.8q.17-.42.37-.86l.4-.88q.76-1.69.56-2a.93.93,0,0,0-.33-.28.19.19,0,0,1-.09-.18.36.36,0,0,1,.11-.25,1,1,0,0,1,.27-.21,1.68,1.68,0,0,1,.72-.17,1.51,1.51,0,0,1,.55.08.93.93,0,0,1,.3.19.74.74,0,0,1,.24.53A2.61,2.61,0,0,1,42,78q-.1.36-.25.79t-.34.88q-.51,1.19-.68,1.57l-.27.56a2.12,2.12,0,0,0-.23.71.48.48,0,0,0,.07.29.29.29,0,0,0,.24.08.72.72,0,0,0,.4-.16,4,4,0,0,0,.5-.43q.27-.27.56-.63t.57-.74a12.81,12.81,0,0,0,.81-1.2Q45,77,45.06,76.83a.63.63,0,0,1,.48-.31,1.48,1.48,0,0,1,.43.06.94.94,0,0,1,.31.16q.31.23.2.45a24.59,24.59,0,0,0-1.93,4.69q0,.33,0,.45,0,.56.34.56a1.07,1.07,0,0,0,.52-.11A.77.77,0,0,1,45.65,82.66Z"/><path class="cls-27" d="M51.41,82.5a3.07,3.07,0,0,1-2.47,1.67,1.64,1.64,0,0,1-1.65-1.3,3.56,3.56,0,0,1-.15-1.1,4.77,4.77,0,0,1,.19-1.31,6,6,0,0,1,1.27-2.32,5.61,5.61,0,0,1,.93-.85,3.47,3.47,0,0,1,2.07-.77,1.5,1.5,0,0,1,1.46,1l.16-.19.16-.19a.52.52,0,0,1,.33-.19A1,1,0,0,1,54,77a1.49,1.49,0,0,1,.3.14q.36.21.27.4a15.15,15.15,0,0,0-.67,1.71l-1.08,3.46q-1.28,3.93-3.25,5.08a2.46,2.46,0,0,1-.9.36,1.63,1.63,0,0,1-.55,0,1.11,1.11,0,0,1-.3-.12q-.29-.18-.29-.33t.34-.31a2.18,2.18,0,0,0,.71-.27,4.12,4.12,0,0,0,.71-.52A8.17,8.17,0,0,0,51.41,82.5ZM49.22,80a7.11,7.11,0,0,0-.3,1.08,4.47,4.47,0,0,0-.09,1.44,1,1,0,0,0,.09.32.46.46,0,0,0,.43.31,1,1,0,0,0,.56-.2,3.61,3.61,0,0,0,.59-.55,7.15,7.15,0,0,0,.62-.83,11.29,11.29,0,0,0,.59-1,10.08,10.08,0,0,0,.86-2.32.81.81,0,0,0-.25-.42,1.17,1.17,0,0,0-.75-.4,1.27,1.27,0,0,0-.67.21,2.76,2.76,0,0,0-.64.56,5,5,0,0,0-.57.83A7,7,0,0,0,49.22,80Z"/><path class="cls-27" d="M60.67,82.15q0,.67.48.67a1.27,1.27,0,0,0,.55-.1.9.9,0,0,1,.29-.1q.15,0,.15.16a1.31,1.31,0,0,1-.66,1.08,1.54,1.54,0,0,1-1.42.23,1.19,1.19,0,0,1-.7-.73,1.46,1.46,0,0,1-.11-.52,4.75,4.75,0,0,1,.07-.81A4.07,4.07,0,0,1,57.63,84a1.86,1.86,0,0,1-.86.21A1.59,1.59,0,0,1,56,84a1.74,1.74,0,0,1-.57-.52A2.76,2.76,0,0,1,55,81.74a5.42,5.42,0,0,1,.77-2.56,6,6,0,0,1,1.68-1.91,3.27,3.27,0,0,1,1.9-.75,1.65,1.65,0,0,1,1.43.81q.51-.81.89-.81a1.07,1.07,0,0,1,.63.15q.4.29.29.51a19.26,19.26,0,0,0-1.89,4.69A2.52,2.52,0,0,0,60.67,82.15Zm-4.06,0q0,.88.56.88t1.06-.73a10,10,0,0,0,1.63-2.9,10.45,10.45,0,0,0,.38-1.14.86.86,0,0,0-.42-.73.76.76,0,0,0-.39-.08,1.31,1.31,0,0,0-.61.19,2.92,2.92,0,0,0-.67.52,4.46,4.46,0,0,0-.61.78,6.19,6.19,0,0,0-.49,1A6.05,6.05,0,0,0,56.61,82.18Z"/><path class="cls-27" d="M63.17,83.92a1,1,0,0,1-.23-.25.53.53,0,0,1-.1-.23.63.63,0,0,1,0-.24l.13-.35a17,17,0,0,0,1.49-4.94.6.6,0,0,0-.24-.5l-.15-.1a.22.22,0,0,1-.07-.18.37.37,0,0,1,.09-.25.88.88,0,0,1,.25-.21,1.36,1.36,0,0,1,.65-.17,1.47,1.47,0,0,1,.52.07,1,1,0,0,1,.32.2.78.78,0,0,1,.28.56,2.51,2.51,0,0,1-.07.59q-.07.3-.17.59t-.19.55a3.77,3.77,0,0,0-.12.38,1,1,0,0,0,0,.32.62.62,0,0,0,.21-.3l.29-.54a6.1,6.1,0,0,1,1.86-2.27,1.24,1.24,0,0,1,.63-.15.75.75,0,0,1,.6.26.9.9,0,0,1,.24.57,1.81,1.81,0,0,1,0,.52,1.49,1.49,0,0,1-.16.39.69.69,0,0,1-.59.41.27.27,0,0,1-.18-.07l-.16-.14a.72.72,0,0,0-.47-.21.89.89,0,0,0-.54.29,5.5,5.5,0,0,0-.66.75,14,14,0,0,0-1.89,3.43l-.32.85a2.32,2.32,0,0,1-.22.45.32.32,0,0,1-.28.14,1.08,1.08,0,0,1-.37-.07A1.33,1.33,0,0,1,63.17,83.92Z"/><path class="cls-5" d="M102.4,31.5h15.2a1.9,1.9,0,0,1,1.9,1.9v2.15a1,1,0,0,1-1,1h-17.1a1,1,0,0,1-1-1V33.4a1.9,1.9,0,0,1,1.9-1.9Z"/><polyline class="cls-75" points="103.38 33.88 109.17 33.88 108.81 33.88 116.63 33.88"/></g><circle id="SVGID-15" data-name="SVGID" class="cls-1" cx="76" cy="76" r="74"/></g></g></svg>