<svg xmlns="http://www.w3.org/2000/svg" version="1.1" id="Layer_1" x="0" y="0" viewBox="0 0 115.7 39" xml:space="preserve"><style id="style833">.st13{fill:none;stroke:#00a734;stroke-width:.769;stroke-linecap:round;stroke-miterlimit:4}.st16{stroke:#1d8bc4;fill:#fff;stroke-width:1.538}</style><path d="M80.224 29.277H75.76v8.47h-4.578V12.108h7.096c1.831 0 3.434.115 4.693.344 1.373.229 2.518.572 3.319 1.259.916.572 1.602 1.373 1.946 2.518.343 1.144.686 2.403.686 4.12 0 1.832-.229 3.205-.8 4.464-.573 1.145-1.26 2.06-2.061 2.747a9.765 9.765 0 01-2.861 1.488c-1.03.114-2.06.229-2.976.229zM79.537 16H75.76v8.927h3.891c1.717 0 2.862-.343 3.663-1.03.687-.686 1.145-1.945 1.145-3.662 0-.801-.115-1.374-.23-1.946-.114-.572-.457-1.03-.8-1.373-.344-.344-.916-.573-1.488-.802-.687 0-1.488-.114-2.404-.114zm26.668 18.313l-.343 3.777h-1.602c-1.946 0-3.32-.687-4.006-2.175-1.26 1.374-3.09 2.175-5.494 2.175a6.481 6.481 0 01-2.06-.343c-.687-.23-1.145-.573-1.603-1.145-.458-.458-.801-1.03-1.145-1.717-.228-.687-.343-1.488-.343-2.289 0-1.259.343-2.29 1.03-3.09a7.526 7.526 0 012.633-1.946c1.03-.458 2.174-.916 3.319-1.03 1.145-.23 2.175-.344 3.09-.344 0-1.144-.343-1.83-.8-2.289-.459-.457-1.26-.686-2.405-.686-1.373 0-3.09.457-4.921 1.373l-.343-3.663c2.174-1.03 4.349-1.602 6.524-1.602 4.349 0 6.523 2.404 6.523 7.325v6.524c0 .344.115.687.23.916.114.229.228.343.457.343.23 0 .458.115.801.115zm-6.524-1.03v-4.12c-.686 0-1.373.114-2.06.343-.687.114-1.259.343-1.717.686a3.578 3.578 0 00-1.259 1.03c-.343.344-.458.802-.458 1.374 0 1.488.802 2.175 2.404 2.175 1.145-.115 2.175-.573 3.09-1.488zm15.452 1.03l-.344 3.777h-1.602c-1.488 0-2.632-.458-3.434-1.374-.8-.915-1.144-2.06-1.144-3.433V10.277h4.464v22.777c0 .343.114.687.229.915.114.23.343.344.686.344z" id="path835" fill="#408abf" stroke="#408abf" stroke-width=".572" fill-opacity="1" stroke-opacity="1"/><path d="M29.062 38.09h-4.464l-5.265-9.729h-4.807v9.729h-4.35V12.452h8.814c5.723 0 8.584 2.518 8.584 7.44 0 3.204-1.488 5.722-4.35 7.439zM18.417 16h-3.891v8.24h4.006c3.205 0 4.807-1.373 4.807-4.234 0-1.374-.343-2.404-1.144-2.976-.802-.687-2.06-1.03-3.778-1.03zM45.2 29.62H33.297c.229 1.831.915 3.205 1.946 4.006 1.03.801 2.289 1.26 3.777 1.26 1.83 0 3.662-.459 5.379-1.374l.343 3.433c-1.83.916-3.891 1.374-5.951 1.374-1.488 0-2.862-.23-4.12-.687a8.951 8.951 0 01-2.977-1.946c-.8-.8-1.488-1.831-1.83-2.976-.459-1.144-.688-2.403-.688-3.777 0-1.373.23-2.518.573-3.662.343-1.145.915-2.175 1.716-2.976.802-.801 1.603-1.488 2.747-2.06 1.03-.458 2.29-.687 3.549-.687 1.144 0 2.174.229 3.09.572.916.344 1.717.916 2.403 1.603.687.686 1.26 1.488 1.603 2.518.343.915.572 2.06.572 3.204v1.03c0 .23-.114.687-.229 1.145zm-7.44-6.524c-2.289 0-3.776 1.26-4.349 3.777h7.898c0-1.03-.344-1.946-.916-2.632-.458-.801-1.373-1.145-2.632-1.145zm17.627 15.337c-1.374 0-2.633-.229-3.663-.686-1.03-.458-1.946-1.145-2.747-1.946-.686-.801-1.259-1.832-1.717-2.976a13.07 13.07 0 01-.572-3.777c0-1.374.229-2.633.572-3.777.344-1.145.916-2.175 1.717-2.976a7.025 7.025 0 012.747-1.946c1.03-.458 2.29-.687 3.663-.687 2.174 0 4.006.458 5.38 1.26l-.459 3.548c-1.488-.916-2.975-1.374-4.578-1.374-1.602 0-2.747.572-3.662 1.603-.802 1.03-1.26 2.518-1.26 4.349 0 1.831.458 3.32 1.26 4.35.8 1.03 2.06 1.602 3.662 1.602 1.603 0 3.09-.458 4.578-1.374l.344 3.434c-1.26.915-3.09 1.373-5.265 1.373zM67.06 16.687h-4.12v-4.235h4.12zm0 21.403h-4.12V19.89h4.12z" id="path837" fill="#00a734" stroke-width="1.145"/><path id="top-hat--stroke_3_" class="st16" d="M4.11 3.066C2.851 4.096 2.165 5.47 1.821 6.958c-.343 1.602-.114 3.205.573 4.693.229.228.343.457.457.572-.228.114-.343.229-.572.458-.687.686-1.03 1.488-1.144 2.403 0 .916.229 1.717.8 2.518.688.687 1.489 1.145 2.404 1.26.916.114 1.832-.23 2.518-.802l11.446-9.729c.572-.457.916-1.144.916-1.831s-.115-1.373-.573-1.946c-.457-.572-1.144-.915-1.83-.915-.688 0-1.374.114-1.947.572l-.572.572-.801-1.03C12.35 2.38 10.634 1.578 9.032 1.464A6.896 6.896 0 004.11 3.066z" stroke="#408abf" stroke-opacity="1"/><path id="bottom-hat--stroke_3_" class="st16" d="M17.502 8.56c-2.175.458-4.35 1.603-6.066 3.09-1.717 1.488-3.205 3.434-4.006 5.494l2.747 3.892c.915-2.06 2.861-3.892 4.578-5.38 1.717-1.487 3.777-2.632 5.952-3.204z" stroke="#408abf" stroke-opacity="1"/><path id="Line-15_3_" class="st13" d="M6.857 13.367l-.8-.343"/><path class="st13" d="M13.267 7.988l-.229-.916" id="path842"/><path fill="none" stroke="#00a734" stroke-width=".88" stroke-linecap="round" d="M9.49 10.048L8.345 8.675" id="path844"/></svg>