<svg width="85" height="45" xmlns="http://www.w3.org/2000/svg"><g fill="none" fill-rule="evenodd"><path stroke="#E7ECEF" stroke-width="2" stroke-linecap="round" d="M36 44h37"/><path d="M56 7c9.941 0 18 8.059 18 18 0 .722-.043 1.435-.125 2.135C77.36 27.823 80 31.083 80 35c0 4.418-3.358 8-7.5 8H38c-6.075 0-11-4.925-11-11s4.925-11 11-11c.149 0 .297.003.445.009C40.259 12.989 47.43 7 56 7z" fill="#FFF"/><path d="M54 9c17 5 19 21 4 33-.667 1.333 4.667 1.333 16 0 6.667-5.333 6.333-10-1-14-2-5 2-9-5-15-5.266-5.266-14-5-14-4z" fill-opacity=".529" fill="#E7ECEF"/><path d="M56 8c-3.986 0-7.652 1.372-10.602 3.667-3.057 2.377-5.347 5.744-6.436 9.604-.07.252-.136.504-.196.757a9.969 9.969 0 00-7.837 2.9A9.969 9.969 0 0028 32a9.969 9.969 0 002.929 7.071A9.969 9.969 0 0038 42h34.5c1.788 0 3.403-.779 4.574-2.027C78.267 38.7 79 36.94 79 35a7.296 7.296 0 00-1.517-4.494c-.95-1.219-2.28-2.09-3.802-2.39a6.073 6.073 0 00-.945-.11A17.223 17.223 0 0073 25c0-4.694-1.903-8.944-4.98-12.02A16.947 16.947 0 0056 8z" stroke="#434651" stroke-width="2"/><g stroke="#3EAAD6" stroke-linecap="round" stroke-width="2"><path d="M16 32.5v8M16 32.5l-3 3M16 32.5l3 3"/></g><g opacity=".75" stroke="#3EAAD6" stroke-linecap="round" stroke-width="2"><path d="M81 10.5v8M81 10.5l-3 3M81 10.5l3 3"/></g><g opacity=".505" stroke="#3EAAD6" stroke-linecap="round" stroke-width="2"><path d="M35 1.5v8M35 1.5l-3 3M35 1.5l3 3"/></g><g stroke-width="2"><g transform="translate(2 6)"><circle stroke="#40B763" stroke-linejoin="square" fill="#FFF" cx="10" cy="10" r="9"/><circle stroke="#FBFBFB" cx="10" cy="10" r="11"/></g><path stroke="#5FCF80" stroke-linecap="round" stroke-linejoin="round" d="M9 17.333L11.571 19 15 14"/></g></g></svg>