<svg width="88" height="44" xmlns="http://www.w3.org/2000/svg"><g fill="none" fill-rule="evenodd"><g><path stroke="#E7ECEF" stroke-width="2" stroke-linecap="round" d="M1 43h37"/><circle stroke="#434651" stroke-width="2" fill="#D8A480" cx="19.5" cy="16" r="15"/><path d="M20 2c10.667 12.667 11 21.333 1 26 12-2 13.23-4.004 13-10C34 8 29.333 2.667 20 2z" fill-opacity=".132" fill="#434651"/><path fill="#805538" d="M11.212 8.788l5.346 2.723-1.49 5.703-7.488-1.298zM24.704 6.687l4.053 1.352-4.405 5.44-3.109-2.518z"/><path fill="#FFF" d="M2 15h35v27H2z"/><path stroke="#434651" fill="#3EAAD6" d="M2.5 32.5h34v9h-34z"/><circle stroke="#434651" fill="#D8A480" cx="19.5" cy="24.5" r="4"/><path fill="#805538" d="M21.232 24.74l1.047.296-1.259 1.555-.777-.63zM17.563 22.655l1.472.75-.343 1.44-2.037-.408z"/><path stroke-opacity=".32" stroke="#408ABF" stroke-width="2" stroke-linecap="round" d="M7.5 40v-3M12.5 40v-3M17.5 40v-3M22.5 40v-3M27.5 40v-3M32.5 40v-3"/><path d="M36 16H3v25h33V16z" stroke="#434651" stroke-width="2"/><path stroke="#434651" stroke-linecap="round" d="M7.5 25h4M27 25h4"/></g><path d="M85.5 20H54.937a1 1 0 00-.768.36l-5.834 7a.998.998 0 000 1.28l5.834 7a1 1 0 00.768.36H85.5a.997.997 0 001-1V21a.997.997 0 00-1-1z" stroke="#40B763" stroke-width="2" fill="#FFF"/><text font-family="Avenir-Heavy, Avenir" font-size="9" font-weight="600" fill="#4ABC6C" transform="translate(39.5 19)"><tspan x="16.68" y="12">$ 6.50</tspan></text><path stroke="#3EAAD6" stroke-width="2" stroke-linecap="round" d="M44 28h-4"/></g></svg>