<svg width="46" height="45" xmlns="http://www.w3.org/2000/svg"><g fill="none" fill-rule="evenodd"><path d="M1 18c0 9.941 8.059 18 18 18h1c1.333 0 2.667 2.333 4 7" stroke="#E7ECEF" stroke-width="2" stroke-linecap="round"/><path d="M19.5 0h9C38.165 0 46 7.835 46 17.5V20c0 8.284-6.716 15-15 15-3.333 9.333-5.667 11.667-7 7-1.333-4.667-3-7-5-7-9.389 0-17-7.611-17-17v-.5C2 7.835 9.835 0 19.5 0z" fill="#FFF"/><path d="M26 2c10 0 26 14 4 31 7 1 15-6 15-9C46 1 30.093-.456 26 2z" fill="#E7ECEF"/><path d="M28.5 1h-9A16.448 16.448 0 007.833 5.833 16.448 16.448 0 003 17.5v.5a15.95 15.95 0 004.686 11.314A15.95 15.95 0 0019 34c1.27 0 2.484.657 3.564 2.169.882 1.235 1.69 3.083 2.398 5.556.225.788.418 1.373 1.12 1.317 1.157-1.108 2.552-3.932 4.3-8.41.085-.215.167-.427.247-.636a13.956 13.956 0 0010.374-4.2A13.954 13.954 0 0045 19.999v-2.5c0-4.556-1.847-8.681-4.833-11.667A16.448 16.448 0 0028.5 1z" stroke="#434651" stroke-width="2"/><path d="M25.24 20.84v-.58c0-.227.053-.453.16-.68.107-.227.313-.46.62-.7.48-.373.877-.717 1.19-1.03.313-.313.567-.623.76-.93.193-.307.33-.617.41-.93.08-.313.12-.663.12-1.05 0-.64-.12-1.207-.36-1.7a3.584 3.584 0 00-.98-1.24 4.248 4.248 0 00-1.43-.75A5.836 5.836 0 0024 11c-1.4 0-2.547.37-3.44 1.11-.893.74-1.413 1.817-1.56 3.23l3.08.2a2.02 2.02 0 01.55-1.26c.327-.347.803-.52 1.43-.52.413 0 .757.123 1.03.37s.41.59.41 1.03c0 .227-.063.443-.19.65a3.888 3.888 0 01-.53.66c-.227.233-.497.483-.81.75-.313.267-.657.58-1.03.94-.253.24-.433.5-.54.78-.107.28-.16.62-.16 1.02v.88h3zm-1.5 4.8c.253 0 .493-.047.72-.14.227-.093.423-.223.59-.39.167-.167.297-.363.39-.59.093-.227.14-.467.14-.72 0-.253-.047-.493-.14-.72a1.786 1.786 0 00-.39-.59 1.786 1.786 0 00-.59-.39 1.872 1.872 0 00-.72-.14c-.253 0-.493.047-.72.14a1.786 1.786 0 00-.59.39 1.786 1.786 0 00-.39.59c-.093.227-.14.467-.14.72 0 .253.047.493.14.72.093.227.223.423.39.59.167.167.363.297.59.39.227.093.467.14.72.14z" fill="#5FCF80" fill-rule="nonzero"/></g></svg>