<svg width="129" height="44" xmlns="http://www.w3.org/2000/svg"><g fill="none" fill-rule="evenodd"><g transform="translate(92)"><path fill="#FFF" d="M5 0h25l5 5v37H0V5z"/><path stroke="#434651" fill="#5DAAE1" d="M.5 34.5h34v7H.5zM29.77.5H5.23L.5 6.018V13.5h34V6.018L29.77.5z"/><path fill="#408ABF" d="M0 5l5-5h25l5 5v1H0z"/><path d="M29.586 1H5.414L1 5.414V41h33V5.414L29.586 1z" stroke="#434651" stroke-width="2"/><path d="M7.936 29v-1.656h1.77v-.864h-1.77v-.864H9.85v-.864H7V29h.936zm5.792 0v-.864h-1.734v-3.384h-.936V29h2.67zm3.08.108c.332 0 .638-.052.918-.156a2.027 2.027 0 001.203-1.152 2.4 2.4 0 00.171-.924 2.4 2.4 0 00-.171-.924 2.027 2.027 0 00-1.203-1.152 2.617 2.617 0 00-.918-.156c-.332 0-.638.052-.918.156a2.027 2.027 0 00-1.203 1.152 2.4 2.4 0 00-.171.924c0 .34.057.648.171.924a2.027 2.027 0 001.203 1.152c.28.104.586.156.918.156zm0-.864c-.2 0-.381-.034-.543-.102a1.219 1.219 0 01-.684-.717 1.558 1.558 0 01-.093-.549c0-.196.031-.378.093-.546a1.219 1.219 0 01.684-.72 1.39 1.39 0 01.543-.102c.2 0 .381.034.543.102a1.219 1.219 0 01.684.72c.062.168.093.35.093.546 0 .2-.031.383-.093.549a1.219 1.219 0 01-.684.717 1.39 1.39 0 01-.543.102zm5.222.864c.292 0 .55-.044.774-.132.224-.088.411-.21.561-.366.15-.156.263-.34.339-.552.076-.212.114-.444.114-.696v-2.61h-.936v2.574c0 .132-.021.254-.063.366a.874.874 0 01-.177.291.812.812 0 01-.612.261.857.857 0 01-.345-.069.804.804 0 01-.273-.192.874.874 0 01-.177-.291 1.034 1.034 0 01-.063-.366v-2.574h-.936v2.61c0 .252.038.484.114.696.076.212.189.396.339.552.15.156.337.278.561.366.224.088.484.132.78.132zM26.118 29v-1.698h.462L27.468 29h1.122l-1.08-1.794c.3-.056.528-.189.684-.399.156-.21.234-.465.234-.765 0-.248-.043-.455-.129-.621a1.046 1.046 0 00-.348-.396 1.46 1.46 0 00-.51-.21 2.9 2.9 0 00-.615-.063h-1.644V29h.936zm.552-2.49h-.552v-.966h.612c.084 0 .17.006.258.018a.745.745 0 01.234.069.44.44 0 01.168.147c.044.064.066.15.066.258a.43.43 0 01-.075.27.441.441 0 01-.189.141.836.836 0 01-.255.054 4.201 4.201 0 01-.267.009z" fill="#434651" fill-rule="nonzero"/><circle stroke="#434651" fill="#D8A480" cx="17.5" cy="14.5" r="4"/></g><g transform="translate(69 10)" stroke-width="2"><circle stroke="#40B763" fill="#FFF" cx="9" cy="9" r="8"/><path stroke="#5FCF80" stroke-linecap="round" d="M6 9h6M9 6v6"/></g><path stroke="#E7ECEF" stroke-width="2" stroke-linecap="round" d="M91 43h37"/><g><path stroke="#E7ECEF" stroke-width="2" stroke-linecap="round" d="M21 43h16"/><path d="M43.343 2.667a2.893 2.893 0 011.065 3.94l.233-.063a2.879 2.879 0 013.535 2.018l.008.03a2.933 2.933 0 01-2.063 3.574l-4.49 1.226a2.88 2.88 0 01-3.345-1.513 2.727 2.727 0 01-.393-.226 2.88 2.88 0 01-2.975-2.114l-.007-.027h0l-1.183-4.501a2.933 2.933 0 012.063-3.574h.003a2.879 2.879 0 013.536 2.017l.007.028h0l.061.233.083-.134a2.893 2.893 0 013.862-.914z" stroke="#434651" stroke-width="2" fill="#5FCF80"/><path d="M31.553 9.774c-3.401 1.485-6.313 7.925-8.218 14.489-1.205 4.151-1.98 8.416-2.137 11.738-.071 1.516-.016 2.827.2 3.82.136.62.28 1.145.627 1.345.297.171.724.068 1.205-.077.817-.247 1.785-.751 2.853-1.437 2.462-1.583 5.401-4.12 8.179-6.966 4.99-5.112 9.611-11.236 9.58-14.532-.03-3.032-1.792-5.573-4.127-7.157-2.474-1.678-5.635-2.326-8.162-1.223z" stroke="#434651" stroke-width="2" fill="#F6A064"/><path d="M26.415 15.987c2.11-.32 3.887-.065 5.33.768M22.013 29.612c1.436-.71 2.924-.621 4.464.268M36.771 30.05c-.776-1.988-1.886-3.4-3.33-4.232" stroke="#434651" stroke-width="2" stroke-linecap="round"/><path d="M42 14c-8.667 15.333-15.667 23.667-21 25 2 3.333 7.253.3 15.759-9.1C49.517 15.802 43.732 15 42 14z" fill-opacity=".14" fill="#434651"/><path d="M44 3c-1 4.105-3 5.132-3 8.21.645 1.325 2.978.983 7-1.026V6.08l-3-1.026L44 3z" fill-opacity=".112" fill="#434651"/><g transform="translate(0 10)" stroke-width="2"><circle stroke="#40B763" fill="#FFF" cx="9" cy="9" r="8"/><path stroke="#5FCF80" stroke-linecap="round" d="M6 9h6M9 6v6"/></g></g></g></svg>