<svg width="106" height="72" xmlns="http://www.w3.org/2000/svg"><g fill="none" fill-rule="evenodd"><g fill="#408ABF" fill-rule="nonzero"><path d="M52.483 37.021c7.237.063 13.101 5.802 13.319 12.952l.006.365v2.821l.877.002c2.347.006 4.6.89 6.316 2.466l.28.27a9.254 9.254 0 012.712 6.179l.007.387-.003.637a9.412 9.412 0 01-2.71 5.933 9.431 9.431 0 01-6.215 2.703l-.39.009h-15.45V54.393h2.481v14.885l12.966.001a6.942 6.942 0 004.603-1.755l.246-.23c1.083-1.094 1.77-2.508 1.957-3.951l.034-.333v-.55a6.794 6.794 0 00-1.996-4.825 6.877 6.877 0 00-4.501-2l-.34-.009h-3.355v-5.284c-.02-5.854-4.686-10.624-10.523-10.847l-.331-.008-.394-.001a10.886 10.886 0 00-8.903 5.274l-.095.165-.03.101a1.7 1.7 0 01-.153.303l-.176.25-.175.419a12.717 12.717 0 00-.865 3.87l-.022.5-.03 1.208-1.215-.006a8.895 8.895 0 00-6.307 2.581c-1.672 1.662-2.607 3.919-2.6 6.366a1.541 1.541 0 00-.004.169l.005.105c.204 4.628 3.958 8.299 8.58 8.461l.31.006h5.984v2.466h-5.986c-5.979-.007-10.914-4.602-11.344-10.454l-.02-.333a3.211 3.211 0 01-.003-.507 11.243 11.243 0 013.323-8.022c1.746-1.735 4-2.846 6.415-3.19l.483-.058.054-.468c.165-1.249.485-2.474.955-3.65l.21-.5a1.78 1.78 0 01.114-.217l.075-.115v-.03l.153-.277c2.183-3.956 6.233-6.531 10.788-6.858l.428-.024h.455z"/><path d="M52.499 52.34l7.16 7.343-1.802 1.849-5.355-5.492-5.334 5.49-1.806-1.845z"/></g><g stroke="#5FCF80" stroke-linecap="round" stroke-linejoin="round" stroke-width="1.91"><path d="M9.125 44.08a17.16 17.16 0 00-1.205 3.568 2.205 2.205 0 01-3.659 1.136c-1.954-1.954-2.488-4.943-1.772-8.17.124.104.262.192.409.261l5.58 2.989c.203.104.421.177.647.216h0zM24.864 28.227a2.205 2.205 0 01-1.137 3.66 17.16 17.16 0 00-3.568 1.204 2.273 2.273 0 00-.216-.648l-3.034-5.58a1.92 1.92 0 00-.261-.408c3.216-.716 6.204-.182 8.216 1.772h0z"/><path d="M13.5 41.261l-2.17 2.17c-.574.576-1.4.82-2.194.649a2.273 2.273 0 01-.647-.216l-5.625-2.955a1.92 1.92 0 01-.41-.261 2.432 2.432 0 01-.181-3.591l1.863-1.83c.06.23.156.449.284.648.21.347.503.636.853.84l6.182 3.524 1.465.84c.184.088.38.149.58.182h0zM16.636 26.455c.104.124.192.262.262.409l2.966 5.613c.104.204.177.422.216.648a2.386 2.386 0 01-.648 2.193l-2.17 2.182a2.205 2.205 0 00-.228-.568l-.84-1.466-3.524-6.182a2.42 2.42 0 00-.84-.875 2.205 2.205 0 00-.603-.273l1.818-1.863a2.432 2.432 0 013.591.182h0z"/><path d="M12.67 29.273l3.523 6.182.841 1.465c.102.178.178.37.227.569a2.398 2.398 0 01-.625 2.34l-.806.807a2.398 2.398 0 01-2.341.625 2.205 2.205 0 01-.569-.227l-1.465-.84-6.182-3.524a2.42 2.42 0 01-.864-.84 2.205 2.205 0 01-.273-.603 2.432 2.432 0 01.625-2.386l4.08-4.08a2.432 2.432 0 012.386-.625c.23.06.449.156.648.284.33.215.604.508.795.853h0z"/></g><g transform="rotate(37 21.118 147.071)" stroke="#5FCF80" stroke-width="1.91"><rect x="2.696" y=".594" width="13.597" height="4.536" rx="1.91"/><path d="M1.567 10.224c1.319 0 1.319-1.128 2.649-1.128s1.318 1.128 2.648 1.128 1.318-1.128 2.648-1.128 1.318 1.128 2.636 1.128 1.33-1.128 2.648-1.128 1.318 1.128 2.637 1.128l1.187-.558-3.456-4.536H3.836L.428 9.666l1.14.558z"/><path d="M17.433 9.666v12.469a3.396 3.396 0 01-3.397 3.396H4.964a3.396 3.396 0 01-3.397-3.396V9.666"/><path d="M11.768 17.599c0 1.247-1.021 3.396-2.268 3.396-1.247 0-2.268-2.15-2.268-3.396a2.268 2.268 0 014.536 0zM9.5 13.063v2.268"/></g><g transform="translate(40 1)" stroke="#5FCF80" stroke-width="1.91"><path d="M5.89 14.084l5.728 4.167 1.43 1.036 1.428-1.036 5.728-4.167"/><path d="M14.476 18.25h8.979v2.085a3.12 3.12 0 01-3.12 3.12H3.665a3.12 3.12 0 01-3.12-3.12V18.25h11.073"/><path d="M14.476 18.25h5.859a2.095 2.095 0 002.083-2.083c0-1.15-.933-2.083-2.083-2.083H3.665c-1.15 0-2.083.933-2.083 2.083a2.095 2.095 0 002.083 2.084h7.953"/><rect x="1.582" y="9.916" width="20.825" height="4.167" rx="1.91"/><rect x="1.582" y="9.916" width="20.825" height="4.167" rx="1.91"/><path d="M8.88.545h6.25a8.335 8.335 0 018.325 8.335v1.09H.545V8.88A8.335 8.335 0 018.88.545zM4.713 6.796h2.083M10.964 6.796h2.072M17.204 6.796h2.083M7.833 3.665h2.083M14.084 3.665h2.083"/></g></g></svg>