<svg width="28" height="34" xmlns="http://www.w3.org/2000/svg"><g fill-rule="nonzero" fill="none"><path fill="#408ABF" d="M18 0v3h-8V0zM14 6C6.268 6 0 12.268 0 20s6.268 14 14 14 14-6.268 14-14S21.732 6 14 6zm0 3c6.075 0 11 4.925 11 11s-4.925 11-11 11S3 26.075 3 20 7.925 9 14 9z"/><path d="M20.5 14c3.367 3.234 3.328 8.39-.086 11.579-3.323 3.103-8.645 3.228-12.128.345L8 25.676l2.053-1.977c2.314 2.09 5.997 2.06 8.272-.065 2.197-2.053 2.297-5.326.282-7.489l-.224-.227L20.5 14z" fill="#5FCF80"/><path fill="#408ABF" d="M16 1v6h-3V1z"/><path d="M14 17a3 3 0 100 6 3 3 0 000-6z" fill="#5FCF80"/><path fill="#5FCF80" d="M16 11v7h-3v-7z"/><path fill="#408ABF" d="M4.071 6L7 8.929 4.929 11 2 8.071zM24.929 6L27 8.071 24.071 11 22 8.929z"/></g></svg>