<?xml version="1.0" encoding="UTF-8"?><svg xmlns="http://www.w3.org/2000/svg" viewBox="0 0 502.85 61.38"><defs><style>.d{fill:#231f20;}</style></defs><g id="a"/><g id="b"><g id="c"><g><path class="d" d="M30.71,26.6c-16.46-2.59-20.44-5.84-20.44-10.16,0-4.76,7.81-8.88,16.93-9.17,7.42,0,13.82,1.77,20.87,7.05l5.53-6.32C44.84,1.93,37.21,0,27.6,0,13.07,0,1.68,7.13,1.68,16.44c0,11.86,14.09,15.76,26.35,17.69,16.47,2.73,18.57,6.03,18.57,10.03,0,4.52-4.75,9.63-16.24,9.63-9.22,0-16.43-2.26-24.79-9.03L0,51.03c10.27,7.75,19.31,10.35,30.38,10.35,14.27,0,24.63-7.22,24.63-17.21,0-9.19-7.49-14.85-24.29-17.56Z"/><polygon class="d" points="234 1.15 221.4 1.15 186.3 31.24 183.26 31.24 183.26 1.15 174.99 1.15 174.99 60.41 183.26 60.41 183.26 44.64 197.83 32.16 200.49 32.16 201.73 32.16 202.88 32.16 224.63 60.41 234.98 60.41 207.11 24.2 234 1.15"/><path class="d" d="M286.59,1.17l-31.4,59.23h8.82l8.27-15.59h35.54l8.27,15.59h8.82L293.49,1.15l-6.9,.02Zm-10.18,35.85l11.68-22.02h3.92l11.68,22.02h-27.28Z"/><path class="d" d="M407.13,19.24c0-11.16-7.79-18.09-20.33-18.09h-33.85V60.41h8.27v-19.25l4.33-4.13h16.15l17.77,23.38h10.35l-18.12-23.85c8.27-1.55,15.44-7.33,15.44-17.32Zm-45.91,9.99V8.95h25.58c8.32,0,12.34,3.26,12.34,10.09,0,3.1-1.02,10.19-12.34,10.19h-25.58Z"/><path class="d" d="M471.44,1.15l-6.9,.02-31.4,59.23h8.82l8.27-15.59h35.54l8.27,15.59h8.82L471.44,1.15Zm-17.08,35.87l11.68-22.02h3.92l11.68,22.02h-27.28Z"/><path class="d" d="M108.64,1.17l-31.4,59.23h8.82l8.27-15.59h35.54l8.27,15.59h8.82L115.54,1.15l-6.9,.02Zm-10.18,35.85l11.68-22.02h3.92l11.68,22.02h-27.28Z"/></g></g></g></svg>